<svg width="16" height="13" viewBox="0 0 16 13" fill="none" xmlns="http://www.w3.org/2000/svg">
<path d="M1.23207 12.5791C0.885645 12.5791 0.593698 12.4602 0.356228 12.2225C0.118743 11.9849 0 11.6926 0 11.3459V1.5717C0 1.22495 0.118743 0.932733 0.356228 0.695031C0.593698 0.457344 0.885645 0.338501 1.23207 0.338501H14.6479C14.9944 0.338501 15.2863 0.457344 15.5238 0.695031C15.7613 0.932733 15.88 1.22495 15.88 1.5717V11.3459C15.88 11.6926 15.7613 11.9849 15.5238 12.2225C15.2863 12.4602 14.9944 12.5791 14.6479 12.5791H1.23207ZM7.94 6.16192L0.501954 1.16063V11.3459C0.501954 11.559 0.570402 11.7341 0.707299 11.8712C0.844195 12.0082 1.01912 12.0767 1.23207 12.0767H14.6479C14.8609 12.0767 15.0358 12.0082 15.1727 11.8712C15.3096 11.7341 15.378 11.559 15.378 11.3459V1.16063L7.94 6.16192ZM7.94 5.52249L14.9902 0.840914H0.912644L7.94 5.52249ZM0.501954 1.16063V0.840914V11.3459C0.501954 11.559 0.570402 11.7341 0.707299 11.8712C0.844195 12.0082 1.01912 12.0767 1.23207 12.0767H0.501954V1.16063Z" fill="#6D6D6D"/>
</svg>
