<svg style="width: 16px; height: 16px" viewBox="0 0 16 16" fill="none" xmlns="http://www.w3.org/2000/svg">
<path d="M1.4026 16C1.00823 16 0.67587 15.8648 0.405533 15.5945C0.135178 15.3241 0 14.9918 0 14.5974V1.4026C0 1.00823 0.135178 0.675861 0.405533 0.405506C0.67587 0.135169 1.00823 0 1.4026 0H14.5974C14.9918 0 15.3241 0.135169 15.5945 0.405506C15.8648 0.675861 16 1.00823 16 1.4026V14.5974C16 14.9918 15.8648 15.3241 15.5945 15.5945C15.3241 15.8648 14.9918 16 14.5974 16H1.4026ZM1.4026 15.4286H14.5974C14.8052 15.4286 14.9957 15.342 15.1688 15.1688C15.342 14.9957 15.4286 14.8052 15.4286 14.5974V1.4026C15.4286 1.19481 15.342 1.00433 15.1688 0.831169C14.9957 0.658009 14.8052 0.571429 14.5974 0.571429H1.4026C1.19481 0.571429 1.00433 0.658009 0.831169 0.831169C0.658009 1.00433 0.571429 1.19481 0.571429 1.4026V14.5974C0.571429 14.8052 0.658009 14.9957 0.831169 15.1688C1.00433 15.342 1.19481 15.4286 1.4026 15.4286ZM3.76623 12.5455H12.4675L9.81818 9.03896L7.14286 12.3377L5.45455 10.3636L3.76623 12.5455Z" fill="#6D6D6D"/>
</svg>
