<svg width="57" height="58" viewBox="0 0 57 58" fill="none" xmlns="http://www.w3.org/2000/svg">
<path d="M5.05601 57.125C3.66954 57.125 2.50111 56.6498 1.5507 55.6993C0.600234 54.7489 0.125 53.5805 0.125 52.194V5.80601C0.125 4.41954 0.600234 3.25108 1.5507 2.30061C2.50111 1.3502 3.66954 0.875 5.05601 0.875H51.444C52.8305 0.875 53.9989 1.3502 54.9494 2.30061C55.8998 3.25108 56.375 4.41954 56.375 5.80601V52.194C56.375 53.5805 55.8998 54.7489 54.9494 55.6993C53.9989 56.6498 52.8305 57.125 51.444 57.125H5.05601ZM5.05601 55.1161H51.444C52.1745 55.1161 52.8442 54.8117 53.4529 54.2029C54.0617 53.5942 54.3661 52.9245 54.3661 52.194V5.80601C54.3661 5.07549 54.0617 4.40584 53.4529 3.79708C52.8442 3.18831 52.1745 2.88393 51.444 2.88393H5.05601C4.32549 2.88393 3.65584 3.18831 3.04708 3.79708C2.43831 4.40584 2.13393 5.07549 2.13393 5.80601V52.194C2.13393 52.9245 2.43831 53.5942 3.04708 54.2029C3.65584 54.8117 4.32549 55.1161 5.05601 55.1161ZM13.3657 44.9801H43.9562L34.642 32.6526L25.2366 44.2496L19.3011 37.3097L13.3657 44.9801Z" fill="#6D6D6D"/>
</svg>
