<svg style="width: calc(21px * var(--base-scale)); height: calc(16px * var(--base-scale))" viewBox="0 0 21 16" fill="none" xmlns="http://www.w3.org/2000/svg">
<path d="M4.71642 11.791H12.2687V8.77612L16.0896 11.791V4.20896L12.2687 7.22388V4.20896H4.71642V11.791ZM1.61194 16C1.15871 16 0.776746 15.8446 0.46606 15.5339C0.155353 15.2233 0 14.8413 0 14.3881V1.61194C0 1.15871 0.155353 0.776736 0.46606 0.46603C0.776746 0.155343 1.15871 0 1.61194 0H19.1642C19.6174 0 19.9994 0.155343 20.3101 0.46603C20.6208 0.776736 20.7761 1.15871 20.7761 1.61194V14.3881C20.7761 14.8413 20.6208 15.2233 20.3101 15.5339C19.9994 15.8446 19.6174 16 19.1642 16H1.61194ZM1.61194 15.3433H19.1642C19.4428 15.3433 19.6716 15.2537 19.8507 15.0746C20.0298 14.8955 20.1194 14.6667 20.1194 14.3881V1.61194C20.1194 1.33333 20.0298 1.10448 19.8507 0.925373C19.6716 0.746269 19.4428 0.656716 19.1642 0.656716H1.61194C1.33333 0.656716 1.10448 0.746269 0.925373 0.925373C0.746269 1.10448 0.656716 1.33333 0.656716 1.61194V14.3881C0.656716 14.6667 0.746269 14.8955 0.925373 15.0746C1.10448 15.2537 1.33333 15.3433 1.61194 15.3433Z" fill="#6D6D6D"/>
</svg>
