<svg width="14" height="16" viewBox="0 0 14 16" fill="none" xmlns="http://www.w3.org/2000/svg">
<path d="M2.35 15.1C1.9875 15.1 1.67192 14.9656 1.40325 14.6968C1.13442 14.4281 1 14.1125 1 13.75V1.175H0V0.625H3.6V0H9.8V0.625H13.4V1.175H12.4V13.75C12.4 14.1295 12.2699 14.4494 12.0098 14.7098C11.7496 14.9699 11.4297 15.1 11.05 15.1H2.35ZM11.85 1.175H1.55V13.75C1.55 13.9833 1.62917 14.175 1.7875 14.325C1.94583 14.475 2.13333 14.55 2.35 14.55H11.05C11.25 14.55 11.4333 14.4667 11.6 14.3C11.7667 14.1333 11.85 13.95 11.85 13.75V1.175ZM4.8 12.5H5.35V3.2H4.8V12.5ZM8.05 12.5H8.6V3.2H8.05V12.5Z" fill="#E3E3E3"/>
</svg>
