<svg width="18" height="18" viewBox="0 0 18 18" fill="none" xmlns="http://www.w3.org/2000/svg">
<path d="M8.7 13C8.84167 13 8.96042 12.9521 9.05625 12.8562C9.15208 12.7604 9.2 12.6417 9.2 12.5C9.2 12.3583 9.15208 12.2396 9.05625 12.1438C8.96042 12.0479 8.84167 12 8.7 12C8.55833 12 8.43958 12.0479 8.34375 12.1438C8.24792 12.2396 8.2 12.3583 8.2 12.5C8.2 12.6417 8.24792 12.7604 8.34375 12.8562C8.43958 12.9521 8.55833 13 8.7 13ZM8.35 9.9H9.05V3.9H8.35V9.9ZM8.70425 17.4C7.50142 17.4 6.37033 17.1718 5.311 16.7153C4.25167 16.2587 3.33025 15.6392 2.54675 14.8565C1.76308 14.0738 1.14275 13.1536 0.68575 12.0957C0.228583 11.0377 0 9.90725 0 8.70425C0 7.50142 0.22825 6.37033 0.68475 5.311C1.14125 4.25167 1.76083 3.33025 2.5435 2.54675C3.32617 1.76308 4.24642 1.14275 5.30425 0.68575C6.36225 0.228583 7.49275 0 8.69575 0C9.89858 0 11.0297 0.22825 12.089 0.68475C13.1483 1.14125 14.0698 1.76083 14.8533 2.5435C15.6369 3.32617 16.2573 4.24642 16.7143 5.30425C17.1714 6.36225 17.4 7.49275 17.4 8.69575C17.4 9.89858 17.1718 11.0297 16.7153 12.089C16.2587 13.1483 15.6392 14.0698 14.8565 14.8533C14.0738 15.6369 13.1536 16.2573 12.0958 16.7143C11.0378 17.1714 9.90725 17.4 8.70425 17.4ZM8.7 16.7C10.9333 16.7 12.825 15.925 14.375 14.375C15.925 12.825 16.7 10.9333 16.7 8.7C16.7 6.46667 15.925 4.575 14.375 3.025C12.825 1.475 10.9333 0.7 8.7 0.7C6.46667 0.7 4.575 1.475 3.025 3.025C1.475 4.575 0.7 6.46667 0.7 8.7C0.7 10.9333 1.475 12.825 3.025 14.375C4.575 15.925 6.46667 16.7 8.7 16.7Z" fill="#E3E3E3"/>
</svg>
