<svg width="21" height="15" viewBox="0 0 21 15" fill="none" xmlns="http://www.w3.org/2000/svg">
<path d="M10.15 14.7C8.1 14.7 6.35417 13.9833 4.9125 12.55C3.47083 11.1167 2.75 9.38333 2.75 7.35V5.6L0.5 7.85L0 7.35L3.1 4.25L6.2 7.35L5.7 7.85L3.45 5.6V7.35C3.45 9.2 4.1 10.7708 5.4 12.0625C6.7 13.3542 8.28333 14 10.15 14C10.5333 14 10.9292 13.9625 11.3375 13.8875C11.7458 13.8125 12.1417 13.7 12.525 13.55L13.05 14.075C12.6 14.275 12.1292 14.4292 11.6375 14.5375C11.1458 14.6458 10.65 14.7 10.15 14.7ZM17.1 10.45L14 7.35L14.5 6.85L16.75 9.1V7.35C16.75 5.5 16.1 3.92917 14.8 2.6375C13.5 1.34583 11.9167 0.7 10.05 0.7C9.66667 0.7 9.27083 0.7375 8.8625 0.8125C8.45417 0.8875 8.05833 1 7.675 1.15L7.15 0.625C7.6 0.425 8.07083 0.270833 8.5625 0.1625C9.05417 0.0541667 9.55 0 10.05 0C12.1 0 13.8458 0.716667 15.2875 2.15C16.7292 3.58333 17.45 5.31667 17.45 7.35V9.1L19.7 6.85L20.2 7.35L17.1 10.45Z" fill="white"/>
</svg>
