<svg width="16" height="15" viewBox="0 0 16 15" fill="none" xmlns="http://www.w3.org/2000/svg">
<path d="M1.5 14.75C1.08333 14.75 0.729167 14.6042 0.4375 14.3125C0.145833 14.0208 0 13.6667 0 13.25V2.2C0 2.11667 0.00416667 2.04167 0.0125 1.975C0.0208333 1.90833 0.05 1.85 0.1 1.8L1.45 0.2C1.5 0.133333 1.55833 0.0833333 1.625 0.05C1.69167 0.0166667 1.76667 0 1.85 0H13.55C13.6333 0 13.7083 0.0166667 13.775 0.05C13.8417 0.0833333 13.9 0.133333 13.95 0.2L15.3 1.8C15.35 1.85 15.3792 1.90833 15.3875 1.975C15.3958 2.04167 15.4 2.11667 15.4 2.2V13.25C15.4 13.6667 15.2542 14.0208 14.9625 14.3125C14.6708 14.6042 14.3167 14.75 13.9 14.75H1.5ZM1.1 1.7H14.3L13.45 0.7H1.95L1.1 1.7ZM1.5 14.05H13.9C14.1333 14.05 14.325 13.975 14.475 13.825C14.625 13.675 14.7 13.4833 14.7 13.25V2.4H0.7V13.25C0.7 13.4833 0.775 13.675 0.925 13.825C1.075 13.975 1.26667 14.05 1.5 14.05ZM10.25 11.15L12.85 8.55L10.25 5.95L9.75 6.45L11.85 8.55L9.75 10.65L10.25 11.15ZM5.2 11.15L5.7 10.65L3.6 8.55L5.7 6.45L5.2 5.95L2.6 8.55L5.2 11.15Z" fill="#000"/>
</svg>
