<svg width="18" height="17" viewBox="0 0 18 17" fill="none" xmlns="http://www.w3.org/2000/svg">
<path d="M3.35 10.05H10.05V9.35H3.35V10.05ZM3.35 7.05H14.05V6.35H3.35V7.05ZM3.35 4.05H14.05V3.35H3.35V4.05ZM0 16.2V1.5C0 1.06667 0.141667 0.708333 0.425 0.425C0.708333 0.141667 1.06667 0 1.5 0H15.9C16.3333 0 16.6917 0.141667 16.975 0.425C17.2583 0.708333 17.4 1.06667 17.4 1.5V11.9C17.4 12.3333 17.2583 12.6917 16.975 12.975C16.6917 13.2583 16.3333 13.4 15.9 13.4H2.8L0 16.2ZM2.5 12.7H15.9C16.1 12.7 16.2833 12.6167 16.45 12.45C16.6167 12.2833 16.7 12.1 16.7 11.9V1.5C16.7 1.3 16.6167 1.11667 16.45 0.95C16.2833 0.783333 16.1 0.7 15.9 0.7H1.5C1.3 0.7 1.11667 0.783333 0.95 0.95C0.783333 1.11667 0.7 1.3 0.7 1.5V14.5L2.5 12.7Z" fill="#000"/>
</svg>
