 <svg
          width="14"
          height="14"
          viewBox="0 0 14 14"
          fill="none"
          xmlns="http://www.w3.org/2000/svg"
        >
          <path
            d="M13.7389 0.252681C13.8931 0.428871 13.9865 0.676453 13.9987 0.941033C14.0108 1.20561 13.9406 1.46555 13.8036 1.66374L5.4973 13.6642C5.42423 13.7698 5.33458 13.8543 5.23424 13.9122C5.13391 13.9701 5.02516 14 4.91517 14C4.80518 14 4.69643 13.9701 4.5961 13.9122C4.49576 13.8543 4.40611 13.7698 4.33305 13.6642L0.179908 7.66399C0.0507256 7.46444 -0.0129944 7.20823 0.0022086 6.94946C0.0174116 6.6907 0.110347 6.44966 0.261382 6.27726C0.412418 6.10486 0.609725 6.0146 0.811624 6.02555C1.01352 6.0365 1.2042 6.1478 1.34338 6.33594L4.91478 11.4952L12.6401 0.334685C12.7774 0.136832 12.9703 0.0170619 13.1763 0.00168601C13.3823 -0.0136899 13.5847 0.0765854 13.7389 0.252681Z"
            fill="var(--icon-indicator-color)"
          />
        </svg>