<svg
        width="14"
        height="14"
        viewBox="0 0 14 14"
        fill="none"
        xmlns="http://www.w3.org/2000/svg"
      >
        <path
          d="M7 1.4C5.51479 1.4 4.09041 1.99 3.0402 3.0402C1.99 4.09041 1.4 5.51479 1.4 7C1.4 8.48521 1.99 9.90959 3.0402 10.9598C4.09041 12.01 5.51479 12.6 7 12.6C8.48521 12.6 9.90959 12.01 10.9598 10.9598C12.01 9.90959 12.6 8.48521 12.6 7C12.6 5.51479 12.01 4.09041 10.9598 3.0402C9.90959 1.99 8.48521 1.4 7 1.4ZM0 7C0 3.1339 3.1339 0 7 0C10.8661 0 14 3.1339 14 7C14 10.8661 10.8661 14 7 14C3.1339 14 0 10.8661 0 7ZM7 2.8C7.18565 2.8 7.3637 2.87375 7.49497 3.00503C7.62625 3.1363 7.7 3.31435 7.7 3.5V6.7102L9.5949 8.6051C9.72241 8.73712 9.79297 8.91394 9.79137 9.09748C9.78978 9.28102 9.71616 9.45659 9.58637 9.58637C9.45659 9.71616 9.28102 9.78978 9.09748 9.79137C8.91394 9.79297 8.73712 9.72241 8.6051 9.5949L6.5051 7.4949C6.37382 7.36365 6.30004 7.18564 6.3 7V3.5C6.3 3.31435 6.37375 3.1363 6.50503 3.00503C6.6363 2.87375 6.81435 2.8 7 2.8Z"
          fill="var(--icon-indicator-color)"
        />
      </svg>