<svg style="width: 36px; height: 36px" viewBox="0 0 49 42" fill="none" xmlns="http://www.w3.org/2000/svg">
<path d="M45.1364 21.75H14.25V20.25H45.1364L38.4545 13.5682L39.5455 12.4773L48.0682 21L39.5455 29.5227L38.4545 28.4318L45.1364 21.75ZM30.2045 12.4773V3.68182C30.2045 3.04545 30 2.52273 29.5909 2.11364C29.1818 1.70455 28.6591 1.5 28.0227 1.5H3.68182C3.04545 1.5 2.52273 1.70455 2.11364 2.11364C1.70455 2.52273 1.5 3.04545 1.5 3.68182V38.3182C1.5 38.9545 1.70455 39.4773 2.11364 39.8864C2.52273 40.2955 3.04545 40.5 3.68182 40.5H28.0227C28.6591 40.5 29.1818 40.2955 29.5909 39.8864C30 39.4773 30.2045 38.9545 30.2045 38.3182V29.5227H31.7045V38.3182C31.7045 39.3068 31.3381 40.1676 30.6051 40.9006C29.8722 41.6335 29.0114 42 28.0227 42H3.68182C2.69318 42 1.83239 41.6335 1.09943 40.9006C0.366477 40.1676 0 39.3068 0 38.3182V3.68182C0 2.69318 0.366477 1.83239 1.09943 1.09943C1.83239 0.366477 2.69318 0 3.68182 0H28.0227C29.0114 0 29.8722 0.366477 30.6051 1.09943C31.3381 1.83239 31.7045 2.69318 31.7045 3.68182V12.4773H30.2045Z" fill="white"/>
</svg>
