<svg width="19" height="17" viewBox="0 0 19 17" fill="none" xmlns="http://www.w3.org/2000/svg">
<path d="M17.8411 8.80357H5.63262V8.19643H17.8411L15.2 5.49188L15.6312 5.05032L19 8.5L15.6312 11.9497L15.2 11.5081L17.8411 8.80357ZM11.939 5.05032V1.49026C11.939 1.23268 11.8582 1.0211 11.6965 0.855519C11.5348 0.689935 11.3281 0.607143 11.0766 0.607143H1.45532C1.20378 0.607143 0.997163 0.689935 0.835461 0.855519C0.673759 1.0211 0.592908 1.23268 0.592908 1.49026V15.5097C0.592908 15.7673 0.673759 15.9789 0.835461 16.1445C0.997163 16.3101 1.20378 16.3929 1.45532 16.3929H11.0766C11.3281 16.3929 11.5348 16.3101 11.6965 16.1445C11.8582 15.9789 11.939 15.7673 11.939 15.5097V11.9497H12.5319V15.5097C12.5319 15.9099 12.3871 16.2583 12.0973 16.555C11.8076 16.8517 11.4674 17 11.0766 17H1.45532C1.06454 17 0.724291 16.8517 0.434574 16.555C0.144858 16.2583 0 15.9099 0 15.5097V1.49026C0 1.0901 0.144858 0.74168 0.434574 0.445008C0.724291 0.148336 1.06454 0 1.45532 0H11.0766C11.4674 0 11.8076 0.148336 12.0973 0.445008C12.3871 0.74168 12.5319 1.0901 12.5319 1.49026V5.05032H11.939Z" fill="#6D6D6D"/>
</svg>
