<svg style="width: calc(24px * var(--base-scale)); height: calc(24px * var(--base-scale))"
viewBox="0 0 36 36" fill="none" 
xmlns="http://www.w3.org/2000/svg">
<path fill-rule="evenodd" clip-rule="evenodd" d="M13.4642 24.4576C7.17225 24.4576 2.07167 19.4461 2.07167 13.2542C2.07167 7.06222 7.17225 2.04068 13.4642 2.04068C19.7562 2.04068 24.8578 7.06222 24.8578 13.2542C24.8578 19.4461 19.7562 24.4576 13.4642 24.4576ZM31.698 30.2595L23.4364 22.127C25.599 19.7762 26.9285 16.6752 26.9285 13.2542C26.9285 5.93186 20.9006 0 13.4642 0C6.02789 0 0 5.93186 0 13.2542C0 20.5665 6.02789 26.4983 13.4642 26.4983C16.6772 26.4983 19.6242 25.388 21.9389 23.5374L30.2335 31.6999C30.6386 32.1 31.2938 32.1 31.698 31.6999C32.1031 31.3098 32.1031 30.6596 31.698 30.2595Z" fill="#6D6D6D"/>
</svg>
