<svg
                width="26"
                height="26"
                viewBox="0 0 26 26"
                fill="none"
                xmlns="http://www.w3.org/2000/svg"
              >
                <path
                  d="M23.8334 23.8333L21.6667 21.6666M12.4584 22.75C13.8099 22.75 15.1482 22.4838 16.3969 21.9666C17.6455 21.4493 18.7801 20.6913 19.7357 19.7356C20.6914 18.7799 21.4495 17.6454 21.9667 16.3967C22.4839 15.1481 22.7501 13.8098 22.7501 12.4583C22.7501 11.1068 22.4839 9.76848 21.9667 8.51984C21.4495 7.2712 20.6914 6.13665 19.7357 5.18099C18.7801 4.22532 17.6455 3.46724 16.3969 2.95003C15.1482 2.43283 13.8099 2.16663 12.4584 2.16663C9.72889 2.16663 7.11117 3.25092 5.18111 5.18099C3.25105 7.11105 2.16675 9.72877 2.16675 12.4583C2.16675 15.1878 3.25105 17.8055 5.18111 19.7356C7.11117 21.6657 9.72889 22.75 12.4584 22.75V22.75Z"
                  stroke="var(--icon-stroke-color)"
                />
              </svg>