 <svg
          width="36"
          height="36"
          viewBox="0 0 36 36"
          fill="none"
          xmlns="http://www.w3.org/2000/svg"
        >
          <path
            d="M14.9244 2.90006C15.5488 3.48717 15.4761 4.46407 15.0535 5.43458L15.0531 5.43536C14.3453 7.0533 13.9556 8.82887 13.97 10.7061L13.9701 10.7079C13.9989 17.6792 19.7813 23.601 26.8555 23.8904L26.8559 23.8904C27.8986 23.9338 28.8967 23.8615 29.8659 23.688C30.4213 23.5867 30.9211 23.5778 31.3406 23.6757C31.7645 23.7745 32.1341 23.9909 32.3561 24.3542C32.5775 24.7165 32.6026 25.1438 32.5024 25.5654C32.403 25.9835 32.1753 26.4259 31.843 26.876C28.7769 31.0718 23.6694 33.7319 17.9634 33.4845L17.9631 33.4845C9.87094 33.1286 3.10478 26.6502 2.54631 18.6654C2.03516 11.5832 6.23649 5.40695 12.3608 2.82424C13.3346 2.41152 14.3156 2.32753 14.9244 2.90006ZM14.2394 3.62858C14.0947 3.49254 13.6511 3.36333 12.7502 3.74528L12.7493 3.74566C6.99378 6.17287 3.06518 11.9663 3.54376 18.5939L3.54384 18.5951C4.06565 26.06 10.4094 32.1513 18.007 32.4854C23.3704 32.7179 28.1624 30.2185 31.0363 26.285L31.0379 26.2829C31.3201 25.9008 31.4709 25.5804 31.5295 25.3342C31.5872 25.0911 31.5495 24.9522 31.5028 24.8757C31.4567 24.8002 31.3528 24.7054 31.1134 24.6495C30.8698 24.5927 30.5166 24.5857 30.0448 24.6718L30.0432 24.6721C29.0028 24.8585 27.9314 24.936 26.8146 24.8895C19.2191 24.5789 13.0017 18.2312 12.9701 10.7129C12.9546 8.69059 13.3749 6.77657 14.1368 5.03485C14.5239 4.14569 14.3688 3.75021 14.2394 3.62858Z"
            fill="var(--icon-stroke-color)"
          />
        </svg>