<svg
          width="36"
          height="36"
          viewBox="0 0 36 36"
          fill="none"
          xmlns="http://www.w3.org/2000/svg"
        >
          <path
            d="M10.5754 10.5754C12.5445 8.60625 15.2152 7.5 18 7.5C20.7848 7.5 23.4555 8.60625 25.4246 10.5754C27.3938 12.5445 28.5 15.2152 28.5 18C28.5 20.7848 27.3938 23.4555 25.4246 25.4246C23.4555 27.3938 20.7848 28.5 18 28.5C15.2152 28.5 12.5445 27.3938 10.5754 25.4246C8.60625 23.4555 7.5 20.7848 7.5 18C7.5 15.2152 8.60625 12.5445 10.5754 10.5754ZM18 9C15.6131 9 13.3239 9.94821 11.636 11.636C9.94821 13.3239 9 15.6131 9 18C9 20.3869 9.94821 22.6761 11.636 24.364C13.3239 26.0518 15.6131 27 18 27C20.3869 27 22.6761 26.0518 24.364 24.364C26.0518 22.6761 27 20.3869 27 18C27 15.6131 26.0518 13.3239 24.364 11.636C22.6761 9.94821 20.3869 9 18 9Z"
            fill="var(--icon-stroke-color)"
          />
          <path
            d="M18 2C18.5523 2 19 2.44772 19 3V3.12C19 3.67228 18.5523 4.12 18 4.12C17.4477 4.12 17 3.67228 17 3.12V3C17 2.44772 17.4477 2 18 2ZM6.58289 6.58289C6.97342 6.19237 7.60658 6.19237 7.99711 6.58289L8.19211 6.77789C8.58263 7.16842 8.58263 7.80158 8.19211 8.19211C7.80158 8.58263 7.16842 8.58263 6.77789 8.19211L6.58289 7.99711C6.19237 7.60658 6.19237 6.97342 6.58289 6.58289ZM29.4171 6.58289C29.8076 6.97342 29.8076 7.60658 29.4171 7.99711L29.2221 8.19211C28.8316 8.58263 28.1984 8.58263 27.8079 8.19211C27.4174 7.80158 27.4174 7.16842 27.8079 6.77789L28.0029 6.58289C28.3934 6.19237 29.0266 6.19237 29.4171 6.58289ZM2 18C2 17.4477 2.44772 17 3 17H3.12C3.67228 17 4.12 17.4477 4.12 18C4.12 18.5523 3.67228 19 3.12 19H3C2.44772 19 2 18.5523 2 18ZM31.88 18C31.88 17.4477 32.3277 17 32.88 17H33C33.5523 17 34 17.4477 34 18C34 18.5523 33.5523 19 33 19H32.88C32.3277 19 31.88 18.5523 31.88 18ZM8.19211 27.8079C8.58263 28.1984 8.58263 28.8316 8.19211 29.2221L7.99711 29.4171C7.60658 29.8076 6.97342 29.8076 6.58289 29.4171C6.19237 29.0266 6.19237 28.3934 6.5829 28.0029L6.77789 27.8079C7.16842 27.4174 7.80159 27.4174 8.19211 27.8079ZM27.8079 27.8079C28.1984 27.4174 28.8316 27.4174 29.2221 27.8079L29.4171 28.0029C29.8076 28.3934 29.8076 29.0266 29.4171 29.4171C29.0266 29.8076 28.3934 29.8076 28.0029 29.4171L27.8079 29.2221C27.4174 28.8316 27.4174 28.1984 27.8079 27.8079ZM18 31.88C18.5523 31.88 19 32.3277 19 32.88V33C19 33.5523 18.5523 34 18 34C17.4477 34 17 33.5523 17 33V32.88C17 32.3277 17.4477 31.88 18 31.88Z"
            fill="var(--icon-stroke-color)"
          />
        </svg>