<svg
                  width="54"
                  height="54"
                  viewBox="0 0 68 68"
                  fill="none"
                  xmlns="http://www.w3.org/2000/svg"
                >
                  <path
                    d="M37.5699 10.2L14.3082 34.8217C13.4299 35.7567 12.5799 37.5984 12.4099 38.8734L11.3616 48.0534C10.9932 51.3684 13.3732 53.635 16.6599 53.0684L25.7832 51.51C27.0582 51.2834 28.8432 50.3484 29.7216 49.385L52.9832 24.7634C57.0066 20.5134 58.8199 15.6684 52.5582 9.74669C46.3249 3.88169 41.5932 5.95002 37.5699 10.2V10.2Z"
                    stroke="var(--icon-stroke-color)"
                  />
                  <path
                    d="M33.6883 14.3083C34.2823 18.1074 36.121 21.6017 38.9159 24.2427C41.7107 26.8837 45.3034 28.5218 49.13 28.9M8.5 62.3334H59.5"
                    stroke="var(--icon-stroke-color)"
                  />
                </svg>