<svg
                  width="56"
                  height="56"
                  viewBox="0 0 56 56"
                  fill="none"
                  xmlns="http://www.w3.org/2000/svg"
                >
                  <path
                    d="M38.29 9.33335C42.8167 9.33335 46.4567 12.9967 46.4567 17.5C46.4567 21.91 42.9567 25.5033 38.5933 25.6667C38.3918 25.6433 38.1882 25.6433 37.9867 25.6667M42.7933 46.6667C44.4733 46.3167 46.06 45.64 47.3667 44.6367C51.0067 41.9067 51.0067 37.4033 47.3667 34.6733C46.0833 33.6933 44.52 33.04 42.8633 32.6667M21.3733 25.3633C21.14 25.34 20.86 25.34 20.6033 25.3633C17.9252 25.2724 15.3875 24.1426 13.5278 22.2133C11.6681 20.2839 10.6324 17.7064 10.64 15.0267C10.64 9.31001 15.26 4.66668 21 4.66668C23.7446 4.61717 26.3964 5.65996 28.3721 7.56564C30.3478 9.47132 31.4855 12.0838 31.535 14.8283C31.5845 17.5729 30.5417 20.2247 28.636 22.2004C26.7304 24.1761 24.1179 25.3138 21.3733 25.3633ZM9.70668 33.9733C4.06001 37.7533 4.06001 43.9134 9.70668 47.67C16.1233 51.9634 26.6467 51.9634 33.0633 47.67C38.71 43.89 38.71 37.73 33.0633 33.9733C26.67 29.7033 16.1467 29.7033 9.70668 33.9733V33.9733Z"
                    stroke="var(--icon-stroke-color)"
                  />
                </svg>