<svg
                width="40"
                height="40"
                viewBox="0 0 40 40"
                fill="none"
                xmlns="http://www.w3.org/2000/svg"
              >
                <path
                  d="M20.55 20.25L16.4334 24.3667C15.8906 24.9078 15.46 25.5507 15.1662 26.2585C14.8724 26.9664 14.7212 27.7253 14.7212 28.4917C14.7212 29.2581 14.8724 30.0169 15.1662 30.7248C15.46 31.4326 15.8906 32.0755 16.4334 32.6167C16.9745 33.1594 17.6174 33.59 18.3253 33.8838C19.0331 34.1776 19.792 34.3289 20.5584 34.3289C21.3248 34.3289 22.0837 34.1776 22.7915 33.8838C23.4993 33.59 24.1423 33.1594 24.6834 32.6167L31.1667 26.1333C33.352 23.9439 34.5794 20.9768 34.5794 17.8833C34.5794 14.7899 33.352 11.8228 31.1667 9.63333C28.9772 7.448 26.0102 6.22064 22.9167 6.22064C19.8233 6.22064 16.8562 7.448 14.6667 9.63333L7.60005 16.7C3.70005 20.6 3.70005 26.9333 7.60005 30.85"
                  stroke="var(--icon-stroke-color)"
                />
              </svg>