 <svg
                width="36"
                height="36"
                viewBox="0 0 36 36"
                fill="none"
                xmlns="http://www.w3.org/2000/svg"
              >
                <path
                  d="M31.5 8.97C26.505 8.475 21.48 8.22 16.47 8.22C13.5 8.22 10.53 8.37 7.56 8.67L4.5 8.97M12.75 7.455L13.08 5.49C13.32 4.065 13.5 3 16.035 3H19.965C22.5 3 22.695 4.125 22.92 5.505L23.25 7.455M28.275 13.71L27.3 28.815C27.135 31.17 27 33 22.815 33H13.185C9 33 8.865 31.17 8.7 28.815L7.725 13.71M15.495 24.75H20.49M14.25 18.75H21.75"
                  stroke="var(--icon-stroke-color)"
                />
              </svg>