<svg style="width: calc(16px * var(--base-scale)); height: calc(32px * var(--base-scale))" viewBox="0 0 16 32" fill="none" xmlns="http://www.w3.org/2000/svg">
<path d="M7.93924 32C5.7519 32 3.88186 31.2304 2.32911 29.6911C0.776371 28.1519 0 26.2886 0 24.1013V5.67089C0 4.11612 0.556449 2.78229 1.66935 1.66939C2.78227 0.556463 4.12962 0 5.71139 0C7.26616 0 8.60001 0.556463 9.71293 1.66939C10.8258 2.78229 11.3823 4.11612 11.3823 5.67089V22.319C11.3823 23.2901 11.0511 24.1067 10.3887 24.7688C9.72638 25.431 8.9095 25.762 7.93811 25.762C6.96671 25.762 6.15021 25.4174 5.48861 24.7283C4.827 24.0392 4.4962 23.209 4.4962 22.238V5.67089H5.38734V22.2785C5.38734 23.0211 5.63376 23.6388 6.12658 24.1316C6.61941 24.6245 7.22363 24.8709 7.93924 24.8709C8.65485 24.8709 9.25907 24.6245 9.7519 24.1316C10.2447 23.6388 10.4911 23.0346 10.4911 22.319V5.67089C10.4911 4.35092 10.0242 3.2243 9.09023 2.29104C8.15631 1.35777 7.02889 0.891139 5.70795 0.891139C4.36003 0.891139 3.22025 1.35777 2.28861 2.29104C1.35696 3.2243 0.891139 4.35092 0.891139 5.67089V24.1418C0.891139 26.0861 1.57975 27.7333 2.95696 29.0835C4.33418 30.4338 5.99494 31.1089 7.93924 31.1089C9.91055 31.1089 11.5781 30.4338 12.9418 29.0835C14.3055 27.7333 14.9873 26.0726 14.9873 24.1013V5.67089H15.8785V24.1013C15.8785 26.2886 15.1021 28.1519 13.5494 29.6911C11.9966 31.2304 10.1266 32 7.93924 32Z" fill="#6D6D6D"/>
</svg>
