<svg width="16" height="16" viewBox="0 0 16 16" fill="none" xmlns="http://www.w3.org/2000/svg">
<path d="M14.7457 15.8945C13.1818 15.8945 11.5319 15.4645 9.7961 14.6044C8.0603 13.7443 6.42332 12.5401 4.88516 10.992C3.347 9.44381 2.14827 7.80534 1.28896 6.07655C0.429654 4.34777 0 2.70069 0 1.13532C0 0.810947 0.105574 0.540628 0.316723 0.324366C0.527855 0.108122 0.791783 0 1.10851 0H2.98335C3.29739 0 3.55753 0.0903097 3.76377 0.270929C3.97 0.451548 4.11608 0.696675 4.20201 1.00631L4.68999 3.00966C4.72558 3.29107 4.709 3.54358 4.64026 3.7672C4.57152 3.99083 4.45784 4.17339 4.29923 4.31489L2.08812 6.32168C2.56933 7.16457 3.07632 7.93865 3.60909 8.64393C4.14186 9.3492 4.70041 10.0029 5.28474 10.6049C5.93781 11.2758 6.64245 11.8865 7.39864 12.4369C8.15483 12.9874 8.98836 13.512 9.89922 14.0109L12.0647 11.7919C12.2365 11.6026 12.4184 11.4779 12.6102 11.4177C12.8021 11.3575 13.0241 11.3446 13.2763 11.379L14.8746 11.7403C15.184 11.7919 15.4289 11.9348 15.6093 12.1691C15.7898 12.4033 15.88 12.6732 15.88 12.9788V14.785C15.88 15.102 15.772 15.3662 15.5559 15.5775C15.3399 15.7888 15.0698 15.8945 14.7457 15.8945ZM1.80455 5.83143L3.99578 3.84461C4.06452 3.77581 4.11179 3.6812 4.13757 3.56078C4.16334 3.44037 4.16764 3.32856 4.15045 3.22535L3.63487 0.980505C3.61768 0.84289 3.56183 0.739679 3.46731 0.670872C3.37278 0.602065 3.25677 0.567661 3.11929 0.567661H0.928052C0.824935 0.567661 0.739004 0.602065 0.67026 0.670872C0.601515 0.739679 0.567143 0.825689 0.567143 0.9289C0.549957 1.63418 0.653074 2.39966 0.876494 3.22535C1.09991 4.05103 1.40926 4.91973 1.80455 5.83143ZM10.4664 14.2689C11.171 14.6474 11.953 14.9226 12.8123 15.0946C13.6716 15.2666 14.3848 15.3526 14.9519 15.3526C15.0551 15.3526 15.141 15.3182 15.2097 15.2494C15.2785 15.1806 15.3129 15.0946 15.3129 14.9914V12.824C15.3129 12.6864 15.2785 12.5702 15.2097 12.4756C15.141 12.381 15.0379 12.3251 14.9004 12.3079L13.0701 11.9209C12.9669 11.9037 12.8767 11.908 12.7994 11.9338C12.722 11.9596 12.6404 12.0069 12.5545 12.0757L10.4664 14.2689Z" fill="#6D6D6D"/>
</svg>
