<svg width="14" height="18" viewBox="0 0 14 18" fill="none" xmlns="http://www.w3.org/2000/svg">
<path d="M1.5 17.4C1.06667 17.4 0.708333 17.2583 0.425 16.975C0.141667 16.6917 0 16.3333 0 15.9V1.5C0 1.06667 0.141667 0.708333 0.425 0.425C0.708333 0.141667 1.06667 0 1.5 0H9.35L13.4 4.05V15.9C13.4 16.3333 13.2583 16.6917 12.975 16.975C12.6917 17.2583 12.3333 17.4 11.9 17.4H1.5ZM9 4.4V0.7H1.5C1.3 0.7 1.11667 0.783333 0.95 0.95C0.783333 1.11667 0.7 1.3 0.7 1.5V15.9C0.7 16.1 0.783333 16.2833 0.95 16.45C1.11667 16.6167 1.3 16.7 1.5 16.7H11.9C12.1 16.7 12.2833 16.6167 12.45 16.45C12.6167 16.2833 12.7 16.1 12.7 15.9V4.4H9Z" fill="white"/>
</svg>
