<svg width="57" height="39" viewBox="0 0 57 39" fill="none" xmlns="http://www.w3.org/2000/svg">
<path d="M0 38.5737V34.8813C0 33.5196 0.353527 32.3804 1.06058 31.4639C1.76763 30.5473 2.7744 29.7987 4.08088 29.218C6.80722 28.018 9.375 27.0513 11.7842 26.3181C14.1934 25.5848 17.2966 25.2182 21.0938 25.2182C24.8909 25.2182 27.981 25.5848 30.364 26.3181C32.747 27.0513 35.3279 28.018 38.1066 29.218C39.3607 29.7987 40.3413 30.5473 41.0484 31.4639C41.7554 32.3804 42.1089 33.5196 42.1089 34.8813V38.5737H0ZM47.9225 38.5737V35.117C47.9225 33.1267 47.5703 31.3989 46.8661 29.9333C46.1618 28.4678 45.2569 27.2365 44.1515 26.2395C45.618 26.6061 47.0583 27.0382 48.4724 27.5358C49.8865 28.0333 51.1969 28.5708 52.4036 29.1482C53.5014 29.723 54.4169 30.5384 55.1501 31.5943C55.8834 32.6502 56.25 33.8244 56.25 35.117V38.5737H47.9225ZM21.0938 16.5765C18.7343 16.5765 16.7631 15.785 15.18 14.202C13.597 12.6189 12.8055 10.6477 12.8055 8.28823C12.8055 5.92877 13.597 3.97063 15.18 2.4138C16.7631 0.856973 18.7343 0.0785615 21.0938 0.0785615C23.4532 0.0785615 25.4114 0.856973 26.9682 2.4138C28.525 3.97063 29.3034 5.92877 29.3034 8.28823C29.3034 10.6477 28.525 12.6189 26.9682 14.202C25.4114 15.785 23.4532 16.5765 21.0938 16.5765ZM40.3806 8.28823C40.3806 10.6477 39.6022 12.6189 38.0454 14.202C36.4885 15.785 34.521 16.5765 32.1429 16.5765H32.3673C33.2745 15.489 33.9596 14.245 34.4226 12.8444C34.8855 11.4438 35.117 9.93493 35.117 8.31777C35.117 6.70066 34.8551 5.22434 34.3314 3.88879C33.8076 2.55325 33.1529 1.25698 32.3673 0C32.3149 0.0523743 32.2757 0.0785615 32.2495 0.0785615H32.1316C34.5173 0.0785615 36.4885 0.856973 38.0454 2.4138C39.6022 3.97063 40.3806 5.92877 40.3806 8.28823ZM1.72835 36.8453H40.3806V34.8813C40.3806 34.0433 40.158 33.297 39.7128 32.6423C39.2676 31.9876 38.4689 31.346 37.3167 30.7175C34.8027 29.4082 32.3411 28.4523 29.9319 27.85C27.5227 27.2477 24.5766 26.9466 21.0938 26.9466C17.6109 26.9466 14.6648 27.2477 12.2556 27.85C9.84637 28.4523 7.38478 29.4082 4.87081 30.7175C3.71858 31.346 2.90677 31.9876 2.43541 32.6423C1.96404 33.297 1.72835 34.0433 1.72835 34.8813V36.8453ZM21.0545 14.8481C22.8876 14.8481 24.4326 14.2196 25.6896 12.9626C26.9466 11.7057 27.5751 10.1606 27.5751 8.32752C27.5751 6.49441 26.9466 4.94937 25.6896 3.69239C24.4326 2.43541 22.8876 1.80691 21.0545 1.80691C19.2214 1.80691 17.6763 2.43541 16.4193 3.69239C15.1624 4.94937 14.5339 6.49441 14.5339 8.32752C14.5339 10.1606 15.1624 11.7057 16.4193 12.9626C17.6763 14.2196 19.2214 14.8481 21.0545 14.8481Z" fill="#6D6D6D"/>
</svg>
