<svg width="90" height="90" viewBox="0 0 90 90" fill="none" xmlns="http://www.w3.org/2000/svg">
<path d="M7.88961 90C5.67127 90 3.80177 89.2396 2.28112 87.7189C0.760374 86.1982 0 84.3287 0 82.1104V7.88961C0 5.67127 0.760374 3.80172 2.28112 2.28097C3.80177 0.760325 5.67127 0 7.88961 0H82.1104C84.3287 0 86.1983 0.760325 87.719 2.28097C89.2397 3.80172 90 5.67127 90 7.88961V82.1104C90 84.3287 89.2397 86.1982 87.719 87.7189C86.1983 89.2396 84.3287 90 82.1104 90H7.88961ZM7.88961 86.7857H82.1104C83.2792 86.7857 84.3506 86.2987 85.3247 85.3247C86.2987 84.3506 86.7857 83.2792 86.7857 82.1104V7.88961C86.7857 6.72078 86.2987 5.64935 85.3247 4.67532C84.3506 3.7013 83.2792 3.21429 82.1104 3.21429H7.88961C6.72078 3.21429 5.64935 3.7013 4.67532 4.67532C3.7013 5.64935 3.21429 6.72078 3.21429 7.88961V82.1104C3.21429 83.2792 3.7013 84.3506 4.67532 85.3247C5.64935 86.2987 6.72078 86.7857 7.88961 86.7857ZM21.1851 70.5682H70.1299L55.2273 50.8442L40.1786 69.3993L30.6818 58.2955L21.1851 70.5682Z" fill="#6D6D6D"/>
</svg>
