<svg width="24" height="21" viewBox="0 0 24 21" fill="none" xmlns="http://www.w3.org/2000/svg">
<path d="M14.2187 8.28623L9.31685 12.7137C8.66682 12.1266 8.30164 11.3303 8.30164 10.5C8.30164 10.0888 8.39129 9.68174 8.56548 9.3019C8.73967 8.92207 8.99499 8.57694 9.31685 8.28623C9.63871 7.99551 10.0208 7.76491 10.4413 7.60757C10.8619 7.45024 11.3126 7.36926 11.7678 7.36926C12.6871 7.36926 13.5687 7.6991 14.2187 8.28623V8.28623Z" stroke="var(--icon-stroke-color)" stroke-width="1" stroke-linecap="round" stroke-linejoin="round"/>
<path d="M17.4059 5.04873C15.7106 3.89373 13.7731 3.26373 11.7678 3.26373C8.34811 3.26373 5.16092 5.08373 2.94248 8.23373C2.07061 9.46748 2.07061 11.5412 2.94248 12.775C3.70779 13.86 4.59904 14.7962 5.56779 15.5487M8.29967 17.0887C9.40404 17.5087 10.5762 17.7362 11.7678 17.7362C15.1875 17.7362 18.3747 15.9162 20.5931 12.7662C21.465 11.5325 21.465 9.45873 20.5931 8.22498C20.2734 7.76998 19.9247 7.34123 19.5662 6.93873" stroke="var(--icon-stroke-color)" stroke-width="1" stroke-linecap="round" stroke-linejoin="round"/>
<path d="M15.1681 11.1125C15.0369 11.7229 14.7067 12.2839 14.2199 12.7236C13.7332 13.1632 13.112 13.4615 12.4363 13.58M9.31689 12.7138L2.08032 19.25M21.4553 1.75L14.2188 8.28625" stroke="var(--icon-stroke-color)" stroke-width="1" stroke-linecap="round" stroke-linejoin="round"/>
</svg>
