<svg width="24" height="21" viewBox="0 0 24 21" fill="none" xmlns="http://www.w3.org/2000/svg">
<path d="M15.2359 10.5C15.2359 12.2325 13.6859 13.6325 11.7678 13.6325C9.84968 13.6325 8.29968 12.2325 8.29968 10.5C8.29968 8.76749 9.84968 7.36749 11.7678 7.36749C13.6859 7.36749 15.2359 8.76749 15.2359 10.5Z" stroke="var(--icon-stroke-color)" stroke-linecap="round" stroke-linejoin="round"/>
<path d="M11.7678 17.7363C15.1875 17.7363 18.3747 15.9163 20.5931 12.7663C21.465 11.5325 21.465 9.45875 20.5931 8.225C18.3747 5.075 15.1875 3.255 11.7678 3.255C8.34811 3.255 5.16092 5.075 2.94248 8.225C2.07061 9.45875 2.07061 11.5325 2.94248 12.7663C5.16092 15.9163 8.34811 17.7363 11.7678 17.7363Z" stroke="var(--icon-stroke-color)" stroke-linecap="round" stroke-linejoin="round"/>
</svg>
