<svg width="32" height="29" viewBox="0 0 32 29" fill="none" xmlns="http://www.w3.org/2000/svg">
<path d="M21.25 14.75L20.4167 13.9167C20.8056 12.1944 20.375 10.7917 19.125 9.70833C17.875 8.625 16.5417 8.26389 15.125 8.625L14.2917 7.79167C14.5139 7.70833 14.7639 7.63889 15.0417 7.58333C15.3194 7.52778 15.6389 7.5 16 7.5C17.5556 7.5 18.8681 8.03472 19.9375 9.10417C21.0069 10.1736 21.5417 11.4861 21.5417 13.0417C21.5417 13.4028 21.5139 13.7361 21.4583 14.0417C21.4028 14.3472 21.3333 14.5833 21.25 14.75ZM26.5 19.875L25.7917 19.2917C26.9306 18.4306 27.9444 17.4792 28.8333 16.4375C29.7222 15.3958 30.4444 14.2639 31 13.0417C29.6111 10.1528 27.5833 7.86111 24.9167 6.16667C22.25 4.47222 19.3194 3.625 16.125 3.625C15.2083 3.625 14.2986 3.70139 13.3958 3.85417C12.4931 4.00694 11.6667 4.19444 10.9167 4.41667L10.2083 3.70833C11.0694 3.375 12.0208 3.125 13.0625 2.95833C14.1042 2.79167 15.1111 2.70833 16.0833 2.70833C19.4444 2.70833 22.5903 3.64583 25.5208 5.52083C28.4514 7.39583 30.6111 9.90278 32 13.0417C31.3889 14.3472 30.6319 15.5625 29.7292 16.6875C28.8264 17.8125 27.75 18.875 26.5 19.875ZM29.125 28.2917L22.7917 21.9583C22.125 22.3194 21.1944 22.6458 20 22.9375C18.8056 23.2292 17.4722 23.375 16 23.375C12.5556 23.375 9.38889 22.4375 6.5 20.5625C3.61111 18.6875 1.44444 16.1806 0 13.0417C0.666667 11.5694 1.56944 10.1736 2.70833 8.85417C3.84722 7.53472 5.06944 6.41667 6.375 5.5L1.5 0.666667L2.16667 0L29.75 27.5833L29.125 28.2917ZM7 6.16667C5.94444 6.86111 4.82639 7.84722 3.64583 9.125C2.46528 10.4028 1.58333 11.7083 1 13.0417C2.38889 15.9306 4.42361 18.2222 7.10417 19.9167C9.78472 21.6111 12.7778 22.4583 16.0833 22.4583C17.3056 22.4583 18.5208 22.3403 19.7292 22.1042C20.9375 21.8681 21.7639 21.625 22.2083 21.375L18.7917 17.9583C18.5139 18.125 18.0903 18.2708 17.5208 18.3958C16.9514 18.5208 16.4444 18.5833 16 18.5833C14.4444 18.5833 13.1319 18.0486 12.0625 16.9792C10.9931 15.9097 10.4583 14.5972 10.4583 13.0417C10.4583 12.625 10.5208 12.1389 10.6458 11.5833C10.7708 11.0278 10.9167 10.5833 11.0833 10.25L7 6.16667Z" fill="#6D6D6D"/>
</svg>
