<svg width="15" height="17" viewBox="0 0 15 17" fill="none" xmlns="http://www.w3.org/2000/svg">
<path d="M4.83851 11.8556L7.69944 8.96816L10.5869 11.8556L11.0372 11.4052L8.17626 8.51783L11.0372 5.60392L10.5869 5.15359L7.69944 8.04101L4.83851 5.15359L4.36169 5.60392L7.2491 8.51783L4.36169 11.4052L4.83851 11.8556ZM3.09016 16.2C2.68796 16.2 2.34899 16.0621 2.07326 15.7864C1.79755 15.5107 1.6597 15.1717 1.6597 14.7695V1.44498H0.600098V0.862203H4.41467V0.199951H10.9842V0.862203H14.7988V1.44498H13.7392V14.7695C13.7392 15.1717 13.6013 15.5107 13.3256 15.7864C13.0499 16.0621 12.7109 16.2 12.3087 16.2H3.09016ZM13.1564 1.44498H2.24248V14.7695C2.24248 14.9814 2.33078 15.1757 2.50738 15.3523C2.68398 15.5289 2.87824 15.6172 3.09016 15.6172H12.3087C12.5206 15.6172 12.7149 15.5289 12.8915 15.3523C13.0681 15.1757 13.1564 14.9814 13.1564 14.7695V1.44498Z" fill="#DF2E38"/>
</svg>
