<svg width="18" height="16" viewBox="0 0 18 16" fill="none" xmlns="http://www.w3.org/2000/svg">
<path d="M0 10.0812V9.43831H8.35714V10.0812H0ZM0 5.3474V4.70455H13.1201V5.3474H0ZM0 0.642857V0H13.1201V0.642857H0ZM9.35065 15.6623V13.3831L15.5162 7.24675C15.6136 7.14935 15.71 7.08604 15.8052 7.05682C15.9004 7.0276 15.9957 7.01299 16.0909 7.01299C16.1948 7.01299 16.2986 7.03247 16.4023 7.07143C16.506 7.11039 16.6002 7.16883 16.6851 7.24675L17.7662 8.35714C17.8442 8.45455 17.9026 8.55195 17.9416 8.64935C17.9805 8.74675 18 8.84416 18 8.94156C18 9.03896 17.9756 9.13636 17.9269 9.23377C17.8782 9.33117 17.8256 9.42857 17.7689 9.52597L11.6299 15.6623H9.35065ZM10.1688 14.8442H11.2792L15.487 10.6364L14.9318 10.0812L14.4058 9.49675L10.1688 13.7338V14.8442ZM14.9318 10.0812L14.4058 9.49675L15.487 10.6364L14.9318 10.0812Z" fill="black"/>
</svg>
