<svg width="18" height="18" viewBox="0 0 18 18" fill="none" xmlns="http://www.w3.org/2000/svg">
<path d="M8.74138 13.5H9.31034V7.96552H8.74138V13.5ZM8.99953 6.72414C9.12916 6.72414 9.23922 6.68147 9.32974 6.59612C9.42026 6.51078 9.46552 6.39828 9.46552 6.25862C9.46552 6.12155 9.42041 6.0097 9.33021 5.92306C9.23998 5.83642 9.13007 5.7931 9.00047 5.7931C8.8536 5.7931 8.73922 5.83642 8.65733 5.92306C8.57543 6.0097 8.53448 6.12155 8.53448 6.25862C8.53448 6.39828 8.57959 6.51078 8.66979 6.59612C8.76002 6.68147 8.86993 6.72414 8.99953 6.72414ZM9.01138 18C7.75434 18 6.58424 17.7639 5.50107 17.2916C4.41788 16.8193 3.46666 16.1741 2.64742 15.3559C1.8282 14.5377 1.18216 13.587 0.709293 12.5039C0.236431 11.4209 0 10.2501 0 8.99157C0 7.75031 0.23613 6.58314 0.708388 5.49005C1.18066 4.39697 1.82591 3.44512 2.64411 2.63452C3.46234 1.8239 4.41299 1.18216 5.49608 0.709294C6.57915 0.236432 7.74993 0 9.00843 0C10.2497 0 11.4169 0.236129 12.5099 0.708388C13.603 1.18066 14.5549 1.8216 15.3655 2.63118C16.1761 3.44078 16.8178 4.39281 17.2907 5.48726C17.7636 6.58171 18 7.74883 18 8.98862C18 10.2457 17.7639 11.4158 17.2916 12.4989C16.8193 13.5821 16.1784 14.5317 15.3688 15.3478C14.5592 16.1639 13.6072 16.8099 12.5127 17.2859C11.4183 17.762 10.2512 18 9.01138 18ZM9.01293 17.431C11.3491 17.431 13.3362 16.6121 14.9741 14.9741C16.6121 13.3362 17.431 11.3405 17.431 8.98707C17.431 6.65086 16.6137 4.66379 14.979 3.02586C13.3443 1.38793 11.3513 0.568966 9 0.568966C6.65517 0.568966 4.66379 1.38631 3.02586 3.021C1.38793 4.65571 0.568966 6.64871 0.568966 9C0.568966 11.3448 1.38793 13.3362 3.02586 14.9741C4.66379 16.6121 6.65948 17.431 9.01293 17.431Z" fill="black"/>
</svg>
