<svg width="18" height="16" viewBox="0 0 18 16" fill="none" xmlns="http://www.w3.org/2000/svg">
<path d="M16.9021 8.14468H5.33617V7.58298H16.9021L14.4 5.08085L14.8085 4.67234L18 7.86383L14.8085 11.0553L14.4 10.6468L16.9021 8.14468ZM11.3106 4.67234V1.37872C11.3106 1.14043 11.234 0.944681 11.0809 0.791489C10.9277 0.638298 10.7319 0.561702 10.4936 0.561702H1.37872C1.14043 0.561702 0.944681 0.638298 0.791489 0.791489C0.638298 0.944681 0.561702 1.14043 0.561702 1.37872V14.3489C0.561702 14.5872 0.638298 14.783 0.791489 14.9362C0.944681 15.0894 1.14043 15.166 1.37872 15.166H10.4936C10.7319 15.166 10.9277 15.0894 11.0809 14.9362C11.234 14.783 11.3106 14.5872 11.3106 14.3489V11.0553H11.8723V14.3489C11.8723 14.7191 11.7351 15.0415 11.4606 15.316C11.1862 15.5904 10.8638 15.7277 10.4936 15.7277H1.37872C1.00851 15.7277 0.68617 15.5904 0.411702 15.316C0.137234 15.0415 0 14.7191 0 14.3489V1.37872C0 1.00851 0.137234 0.68617 0.411702 0.411702C0.68617 0.137234 1.00851 0 1.37872 0H10.4936C10.8638 0 11.1862 0.137234 11.4606 0.411702C11.7351 0.68617 11.8723 1.00851 11.8723 1.37872V4.67234H11.3106Z" fill="#DF2E38"/>
</svg>
