<svg width="18" height="18" viewBox="0 0 18 18" fill="none" xmlns="http://www.w3.org/2000/svg">
<path d="M4.5 9.25862H13.5V8.68966H4.5V9.25862ZM9.0045 18C7.76012 18 6.59433 17.7639 5.50712 17.2916C4.4199 16.8193 3.46666 16.1741 2.64742 15.3559C1.8282 14.5377 1.18216 13.5856 0.709293 12.4998C0.236431 11.414 0 10.2489 0 9.0045C0 7.76012 0.23613 6.59002 0.708388 5.49419C1.18066 4.39835 1.82591 3.44512 2.64411 2.63452C3.46234 1.8239 4.41436 1.18216 5.50019 0.709294C6.58602 0.236432 7.75112 0 8.9955 0C10.2399 0 11.41 0.236129 12.5058 0.708388C13.6017 1.18066 14.5549 1.8216 15.3655 2.63118C16.1761 3.44078 16.8178 4.39281 17.2907 5.48726C17.7636 6.58171 18 7.75112 18 8.9955C18 10.2399 17.7639 11.4057 17.2916 12.4929C16.8193 13.5801 16.1784 14.5333 15.3688 15.3526C14.5592 16.1718 13.6072 16.8178 12.5127 17.2907C11.4183 17.7636 10.2489 18 9.0045 18ZM9 17.431C11.3448 17.431 13.3362 16.6121 14.9741 14.9741C16.6121 13.3362 17.431 11.3448 17.431 9C17.431 6.65517 16.6121 4.66379 14.9741 3.02586C13.3362 1.38793 11.3448 0.568966 9 0.568966C6.65517 0.568966 4.66379 1.38793 3.02586 3.02586C1.38793 4.66379 0.568966 6.65517 0.568966 9C0.568966 11.3448 1.38793 13.3362 3.02586 14.9741C4.66379 16.6121 6.65517 17.431 9 17.431Z" fill="#DF2E38"/>
</svg>
