<svg width="18" height="17" viewBox="0 0 18 17" fill="none" xmlns="http://www.w3.org/2000/svg">
<path d="M4.75862 7.62931C4.94828 7.62931 5.11638 7.55603 5.26293 7.40948C5.40948 7.26293 5.48276 7.09483 5.48276 6.90517C5.48276 6.71552 5.40948 6.54741 5.26293 6.40086C5.11638 6.25431 4.94828 6.18103 4.75862 6.18103C4.55172 6.18103 4.37931 6.25431 4.24138 6.40086C4.10345 6.54741 4.03448 6.71552 4.03448 6.90517C4.03448 7.09483 4.10345 7.26293 4.24138 7.40948C4.37931 7.55603 4.55172 7.62931 4.75862 7.62931ZM9.02586 7.62931C9.21552 7.62931 9.38362 7.55603 9.53017 7.40948C9.67672 7.26293 9.75 7.09483 9.75 6.90517C9.75 6.71552 9.67672 6.54741 9.53017 6.40086C9.38362 6.25431 9.21552 6.18103 9.02586 6.18103C8.83621 6.18103 8.6681 6.25431 8.52155 6.40086C8.375 6.54741 8.30172 6.71552 8.30172 6.90517C8.30172 7.09483 8.375 7.26293 8.52155 7.40948C8.6681 7.55603 8.83621 7.62931 9.02586 7.62931ZM13.2414 7.62931C13.431 7.62931 13.5991 7.55603 13.7457 7.40948C13.8922 7.26293 13.9655 7.09483 13.9655 6.90517C13.9655 6.71552 13.8922 6.54741 13.7457 6.40086C13.5991 6.25431 13.431 6.18103 13.2414 6.18103C13.0517 6.18103 12.8836 6.25431 12.7371 6.40086C12.5905 6.54741 12.5172 6.71552 12.5172 6.90517C12.5172 7.09483 12.5905 7.26293 12.7371 7.40948C12.8836 7.55603 13.0517 7.62931 13.2414 7.62931ZM0 16.7586V1.39655C0 1.00388 0.134595 0.672948 0.403785 0.403759C0.672957 0.134586 1.00388 0 1.39655 0H16.6034C16.9961 0 17.3271 0.134586 17.5962 0.403759C17.8654 0.672948 18 1.00388 18 1.39655V12.4655C18 12.8582 17.8654 13.1891 17.5962 13.4583C17.3271 13.7275 16.9961 13.8621 16.6034 13.8621H2.89655L0 16.7586ZM2.63793 13.2931H16.6034C16.8103 13.2931 17 13.2069 17.1724 13.0345C17.3448 12.8621 17.431 12.6724 17.431 12.4655V1.39655C17.431 1.18966 17.3448 1 17.1724 0.827586C17 0.655172 16.8103 0.568966 16.6034 0.568966H1.39655C1.18966 0.568966 1 0.655172 0.827586 0.827586C0.655172 1 0.568966 1.18966 0.568966 1.39655V15.4138L2.63793 13.2931Z" fill="black"/>
</svg>
