<svg width="36" height="23" viewBox="0 0 36 23" fill="none" xmlns="http://www.w3.org/2000/svg">
<path d="M29.384 13.5057V7.89354H23.7719V6.88973H29.384V1.27757H30.3878V6.88973H36V7.89354H30.3878V13.5057H29.384ZM12.2281 9.58175C10.873 9.58175 9.73574 9.12205 8.81635 8.20266C7.89696 7.28327 7.43726 6.1384 7.43726 4.76806C7.43726 3.39772 7.89696 2.26046 8.81635 1.35627C9.73574 0.45209 10.873 0 12.2281 0C13.5833 0 14.7205 0.45209 15.6399 1.35627C16.5593 2.26046 17.019 3.39772 17.019 4.76806C17.019 6.1384 16.5593 7.28327 15.6399 8.20266C14.7205 9.12205 13.5833 9.58175 12.2281 9.58175ZM0 22.3574V20.2129C0 19.5437 0.205323 18.9125 0.61597 18.3194C1.02662 17.7262 1.59696 17.2624 2.327 16.9278C4.12167 16.1369 5.8217 15.5513 7.42709 15.1711C9.03247 14.7909 10.6294 14.6008 12.218 14.6008C13.8065 14.6008 15.4068 14.7909 17.019 15.1711C18.6312 15.5513 20.3346 16.1369 22.1293 16.9278C22.8593 17.2928 23.4297 17.7643 23.8403 18.3422C24.251 18.9202 24.4563 19.5437 24.4563 20.2129V22.3574H0ZM1.0038 21.3536H23.4525V20.2129C23.4525 19.7567 23.2928 19.3156 22.9734 18.8897C22.654 18.4639 22.2053 18.0989 21.6274 17.7947C20.0152 17.0342 18.4534 16.4791 16.942 16.1293C15.4306 15.7795 13.8593 15.6046 12.2281 15.6046C10.5969 15.6046 9.01802 15.7795 7.49142 16.1293C5.96482 16.4791 4.41065 17.0342 2.8289 17.7947C2.22053 18.0989 1.76426 18.4639 1.46008 18.8897C1.15589 19.3156 1.0038 19.7567 1.0038 20.2129V21.3536ZM12.2281 8.57795C13.2928 8.57795 14.1901 8.21293 14.9202 7.48289C15.6502 6.75285 16.0152 5.85551 16.0152 4.79087C16.0152 3.72624 15.6502 2.8289 14.9202 2.09886C14.1901 1.36882 13.2928 1.0038 12.2281 1.0038C11.1635 1.0038 10.2662 1.36882 9.53612 2.09886C8.80608 2.8289 8.44106 3.72624 8.44106 4.79087C8.44106 5.85551 8.80608 6.75285 9.53612 7.48289C10.2662 8.21293 11.1635 8.57795 12.2281 8.57795Z" fill="#6D6D6D"/>
</svg>
