<svg  style="width: 5px; height: 32px" viewBox="0 0 5 32" fill="none" xmlns="http://www.w3.org/2000/svg">
<path d="M2.3929 32C1.73097 32 1.16667 31.7643 0.7 31.2929C0.233333 30.8215 0 30.2549 0 29.5929C0 28.931 0.2357 28.3667 0.7071 27.9C1.17847 27.4333 1.74513 27.2 2.4071 27.2C3.06903 27.2 3.63333 27.4357 4.1 27.9071C4.56667 28.3785 4.8 28.9451 4.8 29.6071C4.8 30.269 4.5643 30.8333 4.0929 31.3C3.62153 31.7667 3.05487 32 2.3929 32ZM2.3929 18.4C1.73097 18.4 1.16667 18.1643 0.7 17.6929C0.233333 17.2215 0 16.6549 0 15.9929C0 15.331 0.2357 14.7667 0.7071 14.3C1.17847 13.8333 1.74513 13.6 2.4071 13.6C3.06903 13.6 3.63333 13.8357 4.1 14.3071C4.56667 14.7785 4.8 15.3451 4.8 16.0071C4.8 16.669 4.5643 17.2333 4.0929 17.7C3.62153 18.1667 3.05487 18.4 2.3929 18.4ZM2.3929 4.8C1.73097 4.8 1.16667 4.5643 0.7 4.0929C0.233333 3.62153 0 3.05487 0 2.3929C0 1.73097 0.2357 1.16667 0.7071 0.7C1.17847 0.233333 1.74513 0 2.4071 0C3.06903 0 3.63333 0.235701 4.1 0.707101C4.56667 1.17847 4.8 1.74513 4.8 2.4071C4.8 3.06903 4.5643 3.63333 4.0929 4.1C3.62153 4.56667 3.05487 4.8 2.3929 4.8Z" fill="black"/>
</svg>
