<svg xmlns="http://www.w3.org/2000/svg" version="1.1" xmlns:xlink="http://www.w3.org/1999/xlink" xmlns:svgjs="http://svgjs.dev/svgjs" viewBox="0 0 600 200" opacity="1"><path d="M213.48746285852025 -20.98297810319741C159.4298736454669 -22.16098904374917 87.70213621870906 -23.2081100917228 63.48747811730931 -7.632193801439598C39.27282001590959 7.943722488843605 46.34087421512834 53.10079137718998 68.19951425012181 72.47251963850181C90.05815428511531 91.84424789981364 162.96392617639134 89.35733866926353 194.63931832727025 108.59817576643161C226.31471047814915 127.83901286359963 225.26757862186662 166.05890472964785 258.25186715539525 187.9175422215098C291.2361556889239 209.77617971337173 356.8120681645098 241.0588996433848 392.54504952844263 239.75000071760354C428.2780308923748 238.4411017918223 459.4298609298098 211.60865092512307 472.6497553389895 180.0641486668223C485.8696497481692 148.5196464085215 486.0005396407473 80.58769997195719 471.86441598352076 50.48298716779868C457.7282923262942 20.378274363640173 430.8958389164634 11.346866053703593 387.83301339563013 -0.5641281581290514C344.7701878747963 -12.475122369961753 267.54505207157365 -19.804967162645653 213.48746285852025 -20.98297810319741C159.4298736454669 -22.16098904374917 87.70213621870906 -23.2081100917228 63.48747811730931 -7.632193801439598 " fill="#cdcef6" transform="matrix(0.8261782509078615,-0.7093219544777101,0.954629072670186,0.8024373435984768,-136.03565944429945,120.62184612986539)"></path><path d="M174.50493136519742 -142.74183531492C120.44734215214405 -143.91984625547175 48.71960472538623 -144.9669673034454 24.504946623986484 -129.39105101316218C0.2902885225867635 -113.81513472287898 7.3583427218055135 -68.65806583453264 29.216982756798984 -49.28633757322078C51.07562279179248 -29.91460931190892 123.98139468306852 -32.40151854245906 155.65678683394742 -13.16068144529109C187.33217898482633 6.08015565187705 186.2850471285438 44.30004751792538 219.26933566207242 66.15868500978732C252.25362419560105 88.01732250164923 317.829536671187 119.30004243166229 353.5625180351193 117.99114350588107C389.2954993990516 116.68224458009982 420.4473294364865 89.84979371340057 433.6672238456662 58.30529145509985C446.88711825484586 26.760789196798953 447.018008147424 -41.171157239765364 432.8818844901974 -71.2758700439239C418.74576083297086 -101.38058284808241 391.9133074231401 -110.41199115801896 348.8504819023068 -122.32298536985164C305.7876563814735 -134.2339795816843 228.56252057825083 -141.56382437436824 174.50493136519742 -142.74183531492C120.44734215214405 -143.91984625547175 48.71960472538623 -144.9669673034454 24.504946623986484 -129.39105101316218 " fill-opacity="1" fill="#b0b1f0" opacity="1" stroke-opacity="1" stroke-width="0" stroke="hsl(340, 45%, 30%)" transform="matrix(1.0061227022628068,-0.016087438896453143,0.3134017966429067,1.063691024259678,169.6984016638828,49.415634679301974)"></path></svg>