<svg width="16" height="16" viewBox="0 0 16 16" fill="none" xmlns="http://www.w3.org/2000/svg">
<path d="M1.35 15.4C0.9705 15.4 0.650583 15.2699 0.39025 15.0098C0.130083 14.7494 0 14.4295 0 14.05V1.35C0 0.970333 0.130083 0.650416 0.39025 0.39025C0.650583 0.130083 0.9705 0 1.35 0H6.55V0.55H1.35C1.15 0.55 0.966667 0.633333 0.8 0.8C0.633333 0.966667 0.55 1.15 0.55 1.35V14.05C0.55 14.25 0.633333 14.4333 0.8 14.6C0.966667 14.7667 1.15 14.85 1.35 14.85H14.05C14.25 14.85 14.4333 14.7667 14.6 14.6C14.7667 14.4333 14.85 14.25 14.85 14.05V8.85H15.4V14.05C15.4 14.4295 15.2699 14.7494 15.0098 15.0098C14.7496 15.2699 14.4297 15.4 14.05 15.4H1.35ZM5.4 10.4L5 10L14.45 0.55H9.4V0H15.4V6H14.85V0.95L5.4 10.4Z" fill="black"/> //E3E3E3
</svg>
