<svg width="32" height="24" viewBox="0 0 32 24" fill="none" xmlns="http://www.w3.org/2000/svg">
<path d="M16.0147 15.875C17.5327 15.875 18.8333 15.3284 19.9167 14.2353C21 13.1422 21.5417 11.8366 21.5417 10.3186C21.5417 8.80065 20.9951 7.5 19.902 6.41667C18.8088 5.33333 17.5033 4.79167 15.9853 4.79167C14.4673 4.79167 13.1667 5.33824 12.0833 6.43138C11 7.52451 10.4583 8.83007 10.4583 10.348C10.4583 11.866 11.0049 13.1667 12.098 14.25C13.1912 15.3333 14.4967 15.875 16.0147 15.875ZM15.9828 14.875C14.7165 14.875 13.6458 14.4318 12.7708 13.5453C11.8958 12.6589 11.4583 11.5825 11.4583 10.3162C11.4583 9.04983 11.9016 7.97917 12.788 7.10417C13.6744 6.22917 14.7508 5.79167 16.0172 5.79167C17.2835 5.79167 18.3542 6.23489 19.2292 7.12133C20.1042 8.00778 20.5417 9.08417 20.5417 10.3505C20.5417 11.6168 20.0984 12.6875 19.212 13.5625C18.3256 14.4375 17.2492 14.875 15.9828 14.875ZM16.006 20.6667C12.5575 20.6667 9.40278 19.7292 6.54167 17.8542C3.68056 15.9792 1.5 13.4722 0 10.3333C1.5 7.19444 3.67857 4.6875 6.53571 2.8125C9.39285 0.9375 12.5456 0 15.994 0C19.4425 0 22.5972 0.9375 25.4583 2.8125C28.3194 4.6875 30.5 7.19444 32 10.3333C30.5 13.4722 28.3214 15.9792 25.4643 17.8542C22.6072 19.7292 19.4544 20.6667 16.006 20.6667ZM15.993 19.75C19.2199 19.75 22.1736 18.9028 24.8542 17.2083C27.5347 15.5139 29.5833 13.2222 31 10.3333C29.5833 7.44444 27.5371 5.15278 24.8612 3.45833C22.1853 1.76389 19.2339 0.916667 16.007 0.916667C12.7801 0.916667 9.82639 1.76389 7.14583 3.45833C4.46528 5.15278 2.41667 7.44444 1 10.3333C2.41667 13.2222 4.46293 15.5139 7.13879 17.2083C9.81468 18.9028 12.7661 19.75 15.993 19.75Z" fill="#6D6D6D"/>
</svg>
