<svg width="24" height="24" viewBox="0 0 24 24" fill="none" xmlns="http://www.w3.org/2000/svg">
<path d="M3.23226 20V19.2168H6.94839L5.49677 17.8182C4.62581 16.979 3.99194 16.0699 3.59516 15.0909C3.19839 14.1119 3 13.1189 3 12.1119C3 10.3963 3.49839 8.8345 4.49516 7.42657C5.49194 6.01865 6.8129 4.98834 8.45806 4.33566V5.17483C7.04516 5.77156 5.91774 6.6993 5.07581 7.95804C4.23387 9.21678 3.8129 10.6014 3.8129 12.1119C3.8129 13.0443 3.99677 13.9487 4.36452 14.8252C4.73226 15.7016 5.30323 16.5128 6.07742 17.2587L7.52903 18.6573V15.0769H8.34194V20H3.23226ZM12 17.2587C11.7871 17.2587 11.5984 17.1795 11.4339 17.021C11.2694 16.8625 11.1871 16.6807 11.1871 16.4755C11.1871 16.2704 11.2694 16.0886 11.4339 15.9301C11.5984 15.7716 11.7871 15.6923 12 15.6923C12.2129 15.6923 12.4016 15.7716 12.5661 15.9301C12.7306 16.0886 12.8129 16.2704 12.8129 16.4755C12.8129 16.6807 12.7306 16.8625 12.5661 17.021C12.4016 17.1795 12.2129 17.2587 12 17.2587ZM11.5935 13.4545V7.13287H12.4065V13.4545H11.5935ZM15.5419 19.6643V18.8252C16.9548 18.2284 18.0823 17.3007 18.9242 16.042C19.7661 14.7832 20.1871 13.3986 20.1871 11.8881C20.1871 10.9557 20.0032 10.0513 19.6355 9.17483C19.2677 8.29837 18.6968 7.48718 17.9226 6.74126L16.471 5.34266V8.92308H15.6581V4H20.7677V4.78322H17.0516L18.5032 6.18182C19.3742 7.02098 20.0081 7.93007 20.4048 8.90909C20.8016 9.88811 21 10.8811 21 11.8881C21 13.6037 20.5016 15.1655 19.5048 16.5734C18.5081 17.9814 17.1871 19.0117 15.5419 19.6643Z" fill="#DF2E38"/>
</svg>
