<svg width="36" height="26" viewBox="0 0 36 26" fill="none" xmlns="http://www.w3.org/2000/svg">
<path d="M0.100098 25.4V23.05C0.100098 22.1833 0.325098 21.4583 0.775098 20.875C1.2251 20.2916 1.86585 19.8152 2.69735 19.4456C4.43251 18.6819 6.06676 18.0666 7.6001 17.6C9.13343 17.1333 11.1084 16.9 13.5251 16.9C15.9418 16.9 17.9084 17.1333 19.4251 17.6C20.9418 18.0666 22.5843 18.6819 24.3528 19.4456C25.151 19.8152 25.7751 20.2916 26.2251 20.875C26.6751 21.4583 26.9001 22.1833 26.9001 23.05V25.4H0.100098ZM30.6001 25.4V23.2C30.6001 21.9333 30.376 20.8336 29.9277 19.9009C29.4795 18.9681 28.9036 18.1845 28.2001 17.55C29.1334 17.7833 30.0501 18.0583 30.9501 18.375C31.8501 18.6916 32.6841 19.0337 33.4521 19.4012C34.1508 19.767 34.7334 20.286 35.2001 20.958C35.6668 21.63 35.9001 22.3773 35.9001 23.2V25.4H30.6001ZM13.5251 11.4C12.0234 11.4 10.7688 10.8962 9.76135 9.88873C8.75385 8.88123 8.2501 7.62664 8.2501 6.12498C8.2501 4.62331 8.75385 3.37706 9.76135 2.38622C10.7688 1.39539 12.0234 0.899976 13.5251 0.899976C15.0268 0.899976 16.273 1.39539 17.2638 2.38622C18.2547 3.37706 18.7501 4.62331 18.7501 6.12498C18.7501 7.62664 18.2547 8.88123 17.2638 9.88873C16.273 10.8962 15.0268 11.4 13.5251 11.4ZM25.8001 6.12498C25.8001 7.62664 25.3047 8.88123 24.3138 9.88873C23.323 10.8962 22.0708 11.4 20.5572 11.4H20.7001C21.2775 10.7079 21.7135 9.91613 22.0081 9.02473C22.3028 8.13333 22.4501 7.17301 22.4501 6.14377C22.4501 5.11457 22.2834 4.17498 21.9501 3.32498C21.6168 2.47498 21.2001 1.64998 20.7001 0.849976C20.6668 0.883309 20.6418 0.899976 20.6251 0.899976H20.5501C22.0684 0.899976 23.323 1.39539 24.3138 2.38622C25.3047 3.37706 25.8001 4.62331 25.8001 6.12498ZM1.2001 24.3H25.8001V23.05C25.8001 22.5166 25.6584 22.0416 25.3751 21.625C25.0918 21.2083 24.5834 20.8 23.8501 20.4C22.2501 19.5666 20.6834 18.9583 19.1501 18.575C17.6168 18.1916 15.7418 18 13.5251 18C11.3084 18 9.43343 18.1916 7.9001 18.575C6.36676 18.9583 4.8001 19.5666 3.2001 20.4C2.46676 20.8 1.9501 21.2083 1.6501 21.625C1.3501 22.0416 1.2001 22.5166 1.2001 23.05V24.3ZM13.5001 10.3C14.6668 10.3 15.6501 9.89998 16.4501 9.09998C17.2501 8.29998 17.6501 7.31664 17.6501 6.14998C17.6501 4.98331 17.2501 3.99998 16.4501 3.19998C15.6501 2.39998 14.6668 1.99998 13.5001 1.99998C12.3334 1.99998 11.3501 2.39998 10.5501 3.19998C9.7501 3.99998 9.3501 4.98331 9.3501 6.14998C9.3501 7.31664 9.7501 8.29998 10.5501 9.09998C11.3501 9.89998 12.3334 10.3 13.5001 10.3Z" fill="white"/>
</svg>
