<svg width="91" height="90" viewBox="0 0 91 90" fill="none" xmlns="http://www.w3.org/2000/svg">
<path d="M15.7327 74.4442C20.4385 71.2756 25.1444 68.7707 29.8502 66.9294C34.556 65.0882 39.7752 64.1676 45.5077 64.1676C51.2403 64.1676 56.4594 65.0882 61.1653 66.9294C65.8711 68.7707 70.5769 71.2756 75.2827 74.4442C78.9618 70.5905 81.8923 66.1764 84.074 61.202C86.2558 56.2276 87.3467 50.7932 87.3467 44.8989C87.3467 33.2521 83.2826 23.3608 75.1544 15.2252C67.0261 7.08952 57.1439 3.02169 45.5077 3.02169C33.8715 3.02169 23.9893 7.08952 15.8611 15.2252C7.73282 23.3608 3.66871 33.2521 3.66871 44.8989C3.66871 50.7932 4.7596 56.2276 6.94139 61.202C9.12318 66.1764 12.0536 70.5905 15.7327 74.4442ZM45.4736 46.312C41.3894 46.312 37.957 44.9089 35.1763 42.1029C32.3956 39.2968 31.0052 35.8498 31.0052 31.7621C31.0052 27.6742 32.407 24.2386 35.2104 21.4554C38.014 18.6721 41.4578 17.2805 45.5419 17.2805C49.626 17.2805 53.0584 18.6835 55.8391 21.4895C58.6198 24.2957 60.0102 27.7426 60.0102 31.8304C60.0102 35.9183 58.6085 39.3538 55.805 42.1371C53.0014 44.9203 49.5576 46.312 45.4736 46.312ZM45.5678 89.6022C39.2818 89.6022 33.4346 88.4461 28.0261 86.1339C22.6176 83.8216 17.8904 80.6316 13.8444 76.5638C9.79855 72.4959 6.62054 67.7744 4.31041 62.3992C2.00028 57.024 0.845215 51.2006 0.845215 44.929C0.845215 38.6573 2.00028 32.8239 4.31041 27.4287C6.62054 22.0334 9.80766 17.3019 13.8718 13.2341C17.9359 9.16625 22.6531 5.97622 28.0234 3.66398C33.3937 1.35174 39.2118 0.195618 45.4777 0.195618C51.7436 0.195618 57.5717 1.35174 62.962 3.66398C68.3523 5.97622 73.0795 9.16625 77.1436 13.2341C81.2078 17.3019 84.3949 22.0348 86.705 27.4328C89.0151 32.8307 90.1702 38.6327 90.1702 44.8388C90.1702 51.1305 89.0151 56.9831 86.705 62.3965C84.3949 67.8099 81.2078 72.5414 77.1436 76.5911C73.0795 80.6407 68.351 83.8216 62.9579 86.1339C57.5649 88.4461 51.7682 89.6022 45.5678 89.6022ZM45.5077 86.7761C50.3847 86.7761 55.2616 85.8984 60.1385 84.1428C65.0155 82.3872 69.2935 79.8394 72.9726 76.4995C69.2935 73.5878 65.1224 71.2756 60.4594 69.5628C55.7963 67.85 50.8125 66.9937 45.5077 66.9937C40.203 66.9937 35.1977 67.8286 30.4919 69.4986C25.7861 71.1685 21.6792 73.5022 18.1712 76.4995C21.7647 79.8394 26 82.3872 30.8769 84.1428C35.7538 85.8984 40.6308 86.7761 45.5077 86.7761ZM45.5257 43.4859C48.8506 43.4859 51.6253 42.3666 53.8498 40.128C56.0744 37.8895 57.1867 35.1062 57.1867 31.7782C57.1867 28.4503 56.0684 25.6731 53.8319 23.4465C51.5954 21.2199 48.8147 20.1066 45.4897 20.1066C42.1649 20.1066 39.3901 21.2259 37.1656 23.4645C34.941 25.703 33.8287 28.4862 33.8287 31.8142C33.8287 35.1421 34.947 37.9194 37.1835 40.146C39.42 42.3726 42.2007 43.4859 45.5257 43.4859Z" fill="#6D6D6D"/>
</svg>
