<svg width="18" height="18" viewBox="0 0 18 18" fill="none" xmlns="http://www.w3.org/2000/svg">
<path d="M7.05 17.1C6.01667 16.8833 5.06667 16.5125 4.2 15.9875C3.33333 15.4625 2.5875 14.825 1.9625 14.075C1.3375 13.325 0.854167 12.4792 0.5125 11.5375C0.170833 10.5958 0 9.6 0 8.55C0 7.13333 0.3125 5.8125 0.9375 4.5875C1.5625 3.3625 2.525 2.28333 3.825 1.35H0.675V0.65H5.05V5.025H4.35V1.85C3.1 2.68333 2.17917 3.68333 1.5875 4.85C0.995833 6.01667 0.7 7.25 0.7 8.55C0.7 10.4167 1.275 12.0792 2.425 13.5375C3.575 14.9958 5.11667 15.9417 7.05 16.375V17.1ZM7.275 12.25L3.95 8.925L4.45 8.425L7.275 11.25L12.95 5.575L13.45 6.075L7.275 12.25ZM12.35 16.475V12.1H13.05V15.275C14.2833 14.425 15.2 13.4167 15.8 12.25C16.4 11.0833 16.7 9.85 16.7 8.55C16.7 6.68333 16.125 5.02083 14.975 3.5625C13.825 2.10417 12.2833 1.15833 10.35 0.725V0C12.4333 0.433333 14.1292 1.4375 15.4375 3.0125C16.7458 4.5875 17.4 6.43333 17.4 8.55C17.4 9.96667 17.0875 11.2917 16.4625 12.525C15.8375 13.7583 14.875 14.8417 13.575 15.775H16.725V16.475H12.35Z" fill="lightgray"/>
</svg>
