<svg width="18" height="18" viewBox="0 0 18 18" fill="none" xmlns="http://www.w3.org/2000/svg">
<path d="M8.7515 13.7C8.93383 13.7 9.0875 13.637 9.2125 13.511C9.3375 13.3852 9.4 13.231 9.4 13.0485C9.4 12.8662 9.337 12.7125 9.211 12.5875C9.08517 12.4625 8.931 12.4 8.7485 12.4C8.56617 12.4 8.4125 12.463 8.2875 12.589C8.1625 12.7148 8.1 12.869 8.1 13.0515C8.1 13.2338 8.163 13.3875 8.289 13.5125C8.41483 13.6375 8.569 13.7 8.7515 13.7ZM8.35 10.55H9.05C9.08333 10.15 9.17083 9.82083 9.3125 9.5625C9.45417 9.30417 9.71667 8.98333 10.1 8.6C10.55 8.15 10.8792 7.75417 11.0875 7.4125C11.2958 7.07083 11.4 6.68058 11.4 6.24175C11.4 5.49725 11.1425 4.89583 10.6275 4.4375C10.1125 3.97917 9.50333 3.75 8.8 3.75C8.15 3.75 7.5875 3.92917 7.1125 4.2875C6.6375 4.64583 6.28333 5.05 6.05 5.5L6.75 5.8C6.93333 5.41667 7.175 5.09583 7.475 4.8375C7.775 4.57917 8.2 4.45 8.75 4.45C9.43333 4.45 9.92917 4.6375 10.2375 5.0125C10.5458 5.3875 10.7 5.8 10.7 6.25C10.7 6.6 10.6083 6.90833 10.425 7.175C10.2417 7.44167 10 7.71667 9.7 8C9.16667 8.5 8.80833 8.94167 8.625 9.325C8.44167 9.70833 8.35 10.1167 8.35 10.55ZM8.70425 17.4C7.50142 17.4 6.37033 17.1717 5.311 16.7152C4.25167 16.2587 3.33025 15.6392 2.54675 14.8565C1.76308 14.0738 1.14275 13.1536 0.68575 12.0957C0.228583 11.0377 0 9.90725 0 8.70425C0 7.50142 0.22825 6.37033 0.68475 5.311C1.14125 4.25167 1.76083 3.33025 2.5435 2.54675C3.32617 1.76308 4.24642 1.14275 5.30425 0.68575C6.36225 0.228583 7.49275 0 8.69575 0C9.89858 0 11.0297 0.22825 12.089 0.68475C13.1483 1.14125 14.0698 1.76083 14.8533 2.5435C15.6369 3.32617 16.2573 4.24642 16.7143 5.30425C17.1714 6.36225 17.4 7.49275 17.4 8.69575C17.4 9.89858 17.1717 11.0297 16.7152 12.089C16.2587 13.1483 15.6392 14.0698 14.8565 14.8533C14.0738 15.6369 13.1536 16.2573 12.0958 16.7143C11.0378 17.1714 9.90725 17.4 8.70425 17.4ZM8.7 16.7C10.9333 16.7 12.825 15.925 14.375 14.375C15.925 12.825 16.7 10.9333 16.7 8.7C16.7 6.46667 15.925 4.575 14.375 3.025C12.825 1.475 10.9333 0.7 8.7 0.7C6.46667 0.7 4.575 1.475 3.025 3.025C1.475 4.575 0.7 6.46667 0.7 8.7C0.7 10.9333 1.475 12.825 3.025 14.375C4.575 15.925 6.46667 16.7 8.7 16.7Z" fill="gray"/>
</svg>
