<svg width="16" height="16" viewBox="0 0 16 16" fill="none" xmlns="http://www.w3.org/2000/svg">
<path d="M15.4 3.25V13.9C15.4 14.3333 15.2583 14.6917 14.975 14.975C14.6917 15.2583 14.3333 15.4 13.9 15.4H1.5C1.06667 15.4 0.708333 15.2583 0.425 14.975C0.141667 14.6917 0 14.3333 0 13.9V1.5C0 1.06667 0.141667 0.708333 0.425 0.425C0.708333 0.141667 1.06667 0 1.5 0H12.15L15.4 3.25ZM14.7 3.55L11.85 0.7H1.5C1.26667 0.7 1.075 0.775 0.925 0.925C0.775 1.075 0.7 1.26667 0.7 1.5V13.9C0.7 14.1333 0.775 14.325 0.925 14.475C1.075 14.625 1.26667 14.7 1.5 14.7H13.9C14.1333 14.7 14.325 14.625 14.475 14.475C14.625 14.325 14.7 14.1333 14.7 13.9V3.55ZM7.7 11.8C8.16667 11.8 8.56667 11.6333 8.9 11.3C9.23333 10.9667 9.4 10.5667 9.4 10.1C9.4 9.63333 9.23333 9.23333 8.9 8.9C8.56667 8.56667 8.16667 8.4 7.7 8.4C7.23333 8.4 6.83333 8.56667 6.5 8.9C6.16667 9.23333 6 9.63333 6 10.1C6 10.5667 6.16667 10.9667 6.5 11.3C6.83333 11.6333 7.23333 11.8 7.7 11.8ZM2.7 5.4H9.65V2.7H2.7V5.4ZM0.7 3.55V14.7V0.7V3.55Z" fill="white"/>
</svg>
