<svg width="14" height="28" viewBox="0 0 14 28" fill="none" xmlns="http://www.w3.org/2000/svg">
<path d="M6.94684 28C5.03291 28 3.39662 27.3266 2.03797 25.9797C0.679325 24.6329 0 23.0025 0 21.0886V4.96203C0 3.6016 0.486893 2.4345 1.46068 1.46071C2.43449 0.486905 3.61342 0 4.99747 0C6.35789 0 7.52501 0.486905 8.49882 1.46071C9.4726 2.4345 9.95949 3.6016 9.95949 4.96203V19.5291C9.95949 20.3788 9.66971 21.0933 9.09015 21.6727C8.51058 22.2521 7.79581 22.5418 6.94584 22.5418C6.09587 22.5418 5.38144 22.2403 4.80253 21.6373C4.22363 21.0343 3.93418 20.3079 3.93418 19.4582V4.96203H4.71392V19.4937C4.71392 20.1435 4.92954 20.684 5.36076 21.1152C5.79198 21.5464 6.32068 21.762 6.94684 21.762C7.573 21.762 8.10169 21.5464 8.53291 21.1152C8.96414 20.684 9.17975 20.1553 9.17975 19.5291V4.96203C9.17975 3.80705 8.77115 2.82127 7.95395 2.00466C7.13678 1.18805 6.15028 0.779747 4.99446 0.779747C3.81503 0.779747 2.81772 1.18805 2.00253 2.00466C1.18734 2.82127 0.779747 3.80705 0.779747 4.96203V21.1241C0.779747 22.8253 1.38228 24.2667 2.58734 25.4481C3.79241 26.6295 5.24557 27.2203 6.94684 27.2203C8.67173 27.2203 10.1308 26.6295 11.3241 25.4481C12.5173 24.2667 13.1139 22.8135 13.1139 21.0886V4.96203H13.8937V21.0886C13.8937 23.0025 13.2143 24.6329 11.8557 25.9797C10.497 27.3266 8.86076 28 6.94684 28Z" fill="#6D6D6D"/>
</svg>
