<svg width="13" height="16" viewBox="0 0 13 16" fill="none" xmlns="http://www.w3.org/2000/svg">
<path d="M1.26316 16C0.923977 16 0.628655 15.8743 0.377193 15.6228C0.125731 15.3713 0 15.076 0 14.7368V6.64327C0 6.29201 0.125731 5.99366 0.377193 5.74823C0.628655 5.50282 0.923977 5.38012 1.26316 5.38012H2.87719V3.39181C2.87719 2.44437 3.20603 1.6422 3.8637 0.98531C4.52136 0.328437 5.32448 0 6.27305 0C7.22162 0 8.02339 0.328437 8.67836 0.98531C9.33333 1.6422 9.66082 2.44437 9.66082 3.39181V5.38012H11.2749C11.614 5.38012 11.9094 5.50282 12.1608 5.74823C12.4123 5.99366 12.538 6.29201 12.538 6.64327V14.7368C12.538 15.076 12.4123 15.3713 12.1608 15.6228C11.9094 15.8743 11.614 16 11.2749 16H1.26316ZM1.26316 15.4854H11.2749C11.4932 15.4854 11.6725 15.4152 11.8129 15.2749C11.9532 15.1345 12.0234 14.9552 12.0234 14.7368V6.64327C12.0234 6.42495 11.9532 6.24561 11.8129 6.10526C11.6725 5.96491 11.4932 5.89474 11.2749 5.89474H1.26316C1.04483 5.89474 0.865497 5.96491 0.725146 6.10526C0.584795 6.24561 0.51462 6.42495 0.51462 6.64327V14.7368C0.51462 14.9552 0.584795 15.1345 0.725146 15.2749C0.865497 15.4152 1.04483 15.4854 1.26316 15.4854ZM6.27294 11.9298C6.6134 11.9298 6.90448 11.8087 7.1462 11.5665C7.38791 11.3243 7.50877 11.0322 7.50877 10.6901C7.50877 10.3626 7.3866 10.0741 7.14227 9.82456C6.89793 9.57505 6.60554 9.45029 6.26508 9.45029C5.92462 9.45029 5.63353 9.57505 5.39181 9.82456C5.1501 10.0741 5.02924 10.3665 5.02924 10.7018C5.02924 11.037 5.15141 11.3255 5.39574 11.5673C5.64008 11.809 5.93248 11.9298 6.27294 11.9298ZM3.39181 5.38012H9.1462V3.39181C9.1462 2.59259 8.86688 1.91326 8.30823 1.3538C7.74958 0.794347 7.0712 0.51462 6.27312 0.51462C5.47506 0.51462 4.79532 0.794347 4.23392 1.3538C3.67251 1.91326 3.39181 2.59259 3.39181 3.39181V5.38012Z" fill="#6D6D6D"/>
</svg>
