<svg width="16" height="15" viewBox="0 0 16 15" fill="none" xmlns="http://www.w3.org/2000/svg">
<path d="M7.94888 6.22732C7.06798 6.22732 6.3287 5.92856 5.73105 5.33104C5.13341 4.73351 4.83458 3.98944 4.83458 3.09884C4.83458 2.20823 5.13341 1.4691 5.73105 0.881462C6.3287 0.29382 7.06798 0 7.94888 0C8.82978 0 9.56906 0.29382 10.1667 0.881462C10.7644 1.4691 11.0632 2.20823 11.0632 3.09884C11.0632 3.98944 10.7644 4.73351 10.1667 5.33104C9.56906 5.92856 8.82978 6.22732 7.94888 6.22732ZM0 14.5304V13.1367C0 12.682 0.138413 12.2668 0.41524 11.8912C0.692067 11.5156 1.05787 11.2191 1.51266 11.0016C2.63974 10.5074 3.73685 10.1318 4.804 9.87476C5.87115 9.61776 6.91914 9.48926 7.94796 9.48926C8.97679 9.48926 10.0251 9.61776 11.0928 9.87476C12.1606 10.1318 13.2528 10.5113 14.3696 11.0134C14.838 11.2251 15.2098 11.5182 15.485 11.8928C15.7602 12.2674 15.8978 12.682 15.8978 13.1367V14.5304H0ZM0.65252 13.878H15.2452V13.1367C15.2452 12.8402 15.1414 12.5535 14.9338 12.2767C14.7262 12 14.4345 11.7627 14.0588 11.565C13.0504 11.0708 12.0401 10.71 11.028 10.4827C10.0159 10.2553 8.98949 10.1416 7.94888 10.1416C6.90829 10.1416 5.87698 10.2553 4.85496 10.4827C3.83293 10.71 2.82759 11.0708 1.83892 11.565C1.46323 11.7627 1.17157 12 0.96395 12.2767C0.75633 12.5535 0.65252 12.8402 0.65252 13.1367V13.878ZM7.94888 5.57494C8.64095 5.57494 9.22426 5.33771 9.69882 4.86324C10.1734 4.38878 10.4107 3.80559 10.4107 3.11366C10.4107 2.42174 10.1734 1.83854 9.69882 1.36408C9.22426 0.889618 8.64095 0.652386 7.94888 0.652386C7.25681 0.652386 6.6735 0.889618 6.19894 1.36408C5.72438 1.83854 5.4871 2.42174 5.4871 3.11366C5.4871 3.80559 5.72438 4.38878 6.19894 4.86324C6.6735 5.33771 7.25681 5.57494 7.94888 5.57494Z" fill="#6D6D6D"/>
</svg>
