<svg width="18" height="14" viewBox="0 0 18 14" fill="none" xmlns="http://www.w3.org/2000/svg">
<path d="M0 14V12.5323C0 12.043 0.113445 11.6337 0.340336 11.3044C0.567227 10.9751 0.873529 10.7061 1.25924 10.4975C2.08361 10.0664 2.89496 9.71438 3.69328 9.44153C4.4916 9.16868 5.5126 9.03226 6.7563 9.03226C8 9.03226 9.02101 9.16868 9.81933 9.44153C10.6176 9.71438 11.429 10.0664 12.2534 10.4975C12.6391 10.7061 12.9454 10.9751 13.1723 11.3044C13.3992 11.6337 13.5126 12.043 13.5126 12.5323V14H0ZM15.5294 14V12.5323C15.5294 11.9301 15.4374 11.3658 15.2534 10.8393C15.0695 10.3128 14.8086 9.86097 14.4706 9.48387C14.8571 9.59677 15.2353 9.74261 15.605 9.92137C15.9748 10.1001 16.3529 10.293 16.7395 10.5C17.126 10.707 17.4328 10.9908 17.6597 11.3513C17.8866 11.7118 18 12.1055 18 12.5323V14H15.5294ZM6.7563 6.09677C6.00756 6.09677 5.36664 5.79833 4.83353 5.20145C4.30025 4.60438 4.03361 3.88669 4.03361 3.04839C4.03361 2.21008 4.30025 1.49239 4.83353 0.895322C5.36664 0.29844 6.00756 0 6.7563 0C7.50504 0 8.14597 0.29844 8.67907 0.895322C9.21235 1.49239 9.47899 2.21008 9.47899 3.04839C9.47899 3.88669 9.21235 4.60438 8.67907 5.20145C8.14597 5.79833 7.50504 6.09677 6.7563 6.09677ZM13.2605 3.04839C13.2605 3.88669 12.994 4.60438 12.4608 5.20145C11.9276 5.79833 11.2866 6.09677 10.5378 6.09677C10.8457 5.66849 11.0824 5.19327 11.2477 4.67109C11.4131 4.1491 11.4958 3.60707 11.4958 3.045C11.4958 2.48274 11.4076 1.94758 11.2311 1.43952C11.0546 0.931452 10.8235 0.451613 10.5378 0C11.2866 0 11.9276 0.29844 12.4608 0.895322C12.994 1.49239 13.2605 2.21008 13.2605 3.04839Z" fill="black"/>
</svg>
