<svg width="20" height="17" viewBox="0 0 20 17" fill="none" xmlns="http://www.w3.org/2000/svg">
<path d="M11.3664 16.9827C10.3231 16.9827 9.30726 16.7904 8.31888 16.4056C7.3305 16.0209 6.44278 15.4805 5.65574 14.7843L6.09502 14.3446C6.84546 14.9858 7.65538 15.4851 8.52479 15.8423C9.3942 16.1995 10.3414 16.3782 11.3664 16.3782C13.5628 16.3782 15.4252 15.6087 16.9535 14.0698C18.4818 12.5309 19.246 10.6714 19.246 8.49136C19.246 6.31127 18.4772 4.45178 16.9398 2.91289C15.4023 1.37401 13.5445 0.604563 11.3664 0.604563C9.18829 0.604563 7.3305 1.37401 5.79302 2.91289C4.25553 4.45178 3.48679 6.31127 3.48679 8.49136V10.4974L5.93029 8.05168L6.34212 8.46388L3.18479 11.6516L0 8.46388L0.439281 8.05168L2.88278 10.5249V8.49136C2.88278 7.31744 3.10242 6.2133 3.5417 5.17893C3.98098 4.14456 4.58499 3.24265 5.35373 2.47321C6.12248 1.70377 7.02339 1.09921 8.05649 0.659523C9.08959 0.219841 10.1924 0 11.3648 0C12.5373 0 13.6406 0.219841 14.6747 0.659523C15.7089 1.09921 16.6103 1.70377 17.379 2.47321C18.1478 3.24265 18.7518 4.1443 19.1911 5.17816C19.6304 6.212 19.85 7.31558 19.85 8.48889C19.85 10.8538 19.0279 12.8607 17.3836 14.5095C15.7394 16.1583 13.7336 16.9827 11.3664 16.9827ZM9.16999 12.5035C8.9055 12.5035 8.69296 12.4231 8.53234 12.2623C8.37173 12.1016 8.29142 11.8888 8.29142 11.6241V8.32648C8.29142 8.06175 8.39667 7.84443 8.60716 7.67451C8.81765 7.50459 9.07847 7.41963 9.38963 7.41963V6.12807C9.38963 5.58717 9.58398 5.1176 9.97269 4.71935C10.3614 4.32113 10.826 4.12202 11.3664 4.12202C11.9068 4.12202 12.3759 4.32113 12.7738 4.71935C13.1717 5.1176 13.3706 5.58717 13.3706 6.12807V7.41963C13.6635 7.41963 13.9197 7.50459 14.1393 7.67451C14.359 7.84443 14.4688 8.06175 14.4688 8.32648V11.6241C14.4688 11.8888 14.3839 12.1016 14.2142 12.2623C14.0444 12.4231 13.8273 12.5035 13.5628 12.5035H9.16999ZM10.076 7.41963H12.6842V6.13867C12.6842 5.7652 12.5561 5.45022 12.2999 5.19374C12.0436 4.93726 11.7325 4.80902 11.3664 4.80902C11.0003 4.80902 10.6937 4.93726 10.4466 5.19374C10.1996 5.45022 10.076 5.7652 10.076 6.13867V7.41963Z" fill="#6D6D6D"/>
</svg>
