<svg width="36px" height="26px" viewBox="0 0 16 15" fill="none" xmlns="http://www.w3.org/2000/svg">
<path d="M7.94 6.22732C7.06008 6.22732 6.32163 5.92856 5.72465 5.33104C5.12767 4.73351 4.82918 3.98944 4.82918 3.09884C4.82918 2.20823 5.12767 1.4691 5.72465 0.881462C6.32163 0.29382 7.06008 0 7.94 0C8.81992 0 9.55837 0.29382 10.1553 0.881462C10.7523 1.4691 11.0508 2.20823 11.0508 3.09884C11.0508 3.98944 10.7523 4.73351 10.1553 5.33104C9.55837 5.92856 8.81992 6.22732 7.94 6.22732ZM0 14.5304V13.1367C0 12.682 0.138259 12.2668 0.414776 11.8912C0.691294 11.5156 1.05669 11.2191 1.51097 11.0016C2.63679 10.5074 3.73268 10.1318 4.79863 9.87476C5.86459 9.61776 6.9114 9.48926 7.93908 9.48926C8.96676 9.48926 10.0139 9.61776 11.0804 9.87476C12.147 10.1318 13.238 10.5113 14.3535 11.0134C14.8214 11.2251 15.1928 11.5182 15.4677 11.8928C15.7426 12.2674 15.88 12.682 15.88 13.1367V14.5304H0ZM0.651791 13.878H15.2282V13.1367C15.2282 12.8402 15.1245 12.5535 14.9171 12.2767C14.7097 12 14.4184 11.7627 14.0431 11.565C13.0358 11.0708 12.0267 10.71 11.0157 10.4827C10.0047 10.2553 8.97945 10.1416 7.94 10.1416C6.90057 10.1416 5.87042 10.2553 4.84953 10.4827C3.82865 10.71 2.82443 11.0708 1.83687 11.565C1.46159 11.7627 1.17026 12 0.962873 12.2767C0.755485 12.5535 0.651791 12.8402 0.651791 13.1367V13.878ZM7.94 5.57494C8.63129 5.57494 9.21396 5.33771 9.68799 4.86324C10.162 4.38878 10.399 3.80559 10.399 3.11366C10.399 2.42174 10.162 1.83854 9.68799 1.36408C9.21396 0.889618 8.63129 0.652386 7.94 0.652386C7.24871 0.652386 6.66605 0.889618 6.19202 1.36408C5.71799 1.83854 5.48097 2.42174 5.48097 3.11366C5.48097 3.80559 5.71799 4.38878 6.19202 4.86324C6.66605 5.33771 7.24871 5.57494 7.94 5.57494Z" fill="#6D6D6D"/>
</svg>
