<svg width="18" height="12" viewBox="0 0 18 12" fill="none" xmlns="http://www.w3.org/2000/svg">
<path d="M14.692 6.75285V3.94677H11.8859V3.44487H14.692V0.638783H15.1939V3.44487H18V3.94677H15.1939V6.75285H14.692ZM6.11407 4.79087C5.4365 4.79087 4.86787 4.56103 4.40817 4.10133C3.94848 3.64164 3.71863 3.0692 3.71863 2.38403C3.71863 1.69886 3.94848 1.13023 4.40817 0.678136C4.86787 0.226045 5.4365 0 6.11407 0C6.79164 0 7.36027 0.226045 7.81996 0.678136C8.27966 1.13023 8.50951 1.69886 8.50951 2.38403C8.50951 3.0692 8.27966 3.64164 7.81996 4.10133C7.36027 4.56103 6.79164 4.79087 6.11407 4.79087ZM0 11.1787V10.1065C0 9.77186 0.102662 9.45627 0.307985 9.1597C0.513308 8.86312 0.798479 8.63118 1.1635 8.46388C2.06084 8.06844 2.91085 7.77566 3.71354 7.58555C4.51624 7.39544 5.31472 7.30038 6.10898 7.30038C6.90325 7.30038 7.70342 7.39544 8.50951 7.58555C9.31559 7.77566 10.1673 8.06844 11.0646 8.46388C11.4297 8.64639 11.7148 8.88213 11.9202 9.1711C12.1255 9.46008 12.2281 9.77186 12.2281 10.1065V11.1787H0ZM0.501901 10.6768H11.7262V10.1065C11.7262 9.87833 11.6464 9.65779 11.4867 9.44487C11.327 9.23194 11.1027 9.04943 10.8137 8.89734C10.0076 8.51711 9.22672 8.23954 8.47102 8.06464C7.71532 7.88973 6.92967 7.80228 6.11407 7.80228C5.29846 7.80228 4.50901 7.88973 3.74571 8.06464C2.98241 8.23954 2.20532 8.51711 1.41445 8.89734C1.11027 9.04943 0.882129 9.23194 0.730038 9.44487C0.577947 9.65779 0.501901 9.87833 0.501901 10.1065V10.6768ZM6.11407 4.28897C6.64639 4.28897 7.09506 4.10646 7.46008 3.74144C7.8251 3.37643 8.0076 2.92776 8.0076 2.39544C8.0076 1.86312 7.8251 1.41445 7.46008 1.04943C7.09506 0.684411 6.64639 0.501901 6.11407 0.501901C5.58175 0.501901 5.13308 0.684411 4.76806 1.04943C4.40304 1.41445 4.22053 1.86312 4.22053 2.39544C4.22053 2.92776 4.40304 3.37643 4.76806 3.74144C5.13308 4.10646 5.58175 4.28897 6.11407 4.28897Z" fill="black"/>
</svg>
