<svg width="15" height="18" viewBox="0 0 15 18" fill="none" xmlns="http://www.w3.org/2000/svg">
<path d="M4.29389 15.3168C3.85935 15.3168 3.49303 15.1713 3.19494 14.8805C2.89704 14.5894 2.74809 14.2317 2.74809 13.8075V1.50932C2.74809 1.08484 2.89704 0.727174 3.19494 0.436304C3.49303 0.145434 3.85935 0 4.29389 0H13.4542C13.8889 0 14.2552 0.145434 14.5531 0.436304C14.851 0.727174 15 1.08484 15 1.50932V13.8075C15 14.2317 14.851 14.5894 14.5531 14.8805C14.2552 15.1713 13.8889 15.3168 13.4542 15.3168H4.29389ZM4.29389 14.7019H13.4542C13.6832 14.7019 13.8931 14.6087 14.084 14.4224C14.2748 14.236 14.3702 14.0311 14.3702 13.8075V1.50932C14.3702 1.28571 14.2748 1.08075 14.084 0.89441C13.8931 0.708075 13.6832 0.614907 13.4542 0.614907H4.29389C4.06489 0.614907 3.85496 0.708075 3.66412 0.89441C3.47328 1.08075 3.37786 1.28571 3.37786 1.50932V13.8075C3.37786 14.0311 3.47328 14.236 3.66412 14.4224C3.85496 14.6087 4.06489 14.7019 4.29389 14.7019ZM1.5458 18C1.11126 18 0.744943 17.8546 0.446851 17.5637C0.14895 17.2726 0 16.915 0 16.4907V3.57764H0.629771V16.4907C0.629771 16.7143 0.725191 16.9193 0.916031 17.1056C1.10687 17.2919 1.31679 17.3851 1.5458 17.3851H11.3359V18H1.5458Z" fill="#000"/>
</svg>
