<svg width="16" height="18" viewBox="0 0 16 18" fill="none" xmlns="http://www.w3.org/2000/svg">
<path d="M2.98507 18C2.48756 18 2.06468 17.8262 1.71642 17.4785C1.36816 17.1308 1.19403 16.7086 1.19403 16.2119V1.66887H0V0.834437H4.41791V0H11.5821V0.834437H16V1.66887H14.806V16.2119C14.806 16.7285 14.6368 17.1556 14.2985 17.4934C13.9602 17.8311 13.5323 18 13.0149 18H2.98507ZM13.9701 1.66887H2.02985V16.2119C2.02985 16.4901 2.1194 16.7185 2.29851 16.8974C2.47761 17.0762 2.70647 17.1656 2.98507 17.1656H13.0149C13.2537 17.1656 13.4726 17.0662 13.6716 16.8675C13.8706 16.6689 13.9701 16.4503 13.9701 16.2119V1.66887ZM5.67164 14.7815H6.50746V4.05298H5.67164V14.7815ZM9.49254 14.7815H10.3284V4.05298H9.49254V14.7815Z" fill="#000"/>
</svg>
