<svg width="19" height="19" viewBox="0 0 19 19" fill="none" xmlns="http://www.w3.org/2000/svg">
<path d="M9.5 14.4627L5.17537 10.1381L5.74254 9.60634L9.11007 12.9384V0H9.88993V12.9384L13.2575 9.60634L13.8246 10.1381L9.5 14.4627ZM1.91418 19C1.37608 19 0.922469 18.8156 0.55334 18.4467C0.184447 18.0775 0 17.6239 0 17.0858V13.6474H0.779851V17.0858C0.779851 17.3694 0.89801 17.6294 1.13433 17.8657C1.37065 18.102 1.6306 18.2201 1.91418 18.2201H17.0858C17.3694 18.2201 17.6294 18.102 17.8657 17.8657C18.102 17.6294 18.2201 17.3694 18.2201 17.0858V13.6474H19V17.0858C19 17.6239 18.8156 18.0775 18.4467 18.4467C18.0778 18.8156 17.6242 19 17.0858 19H1.91418Z" fill="#000"/>
</svg>
