<svg width="18" height="18" viewBox="0 0 18 18" fill="none" xmlns="http://www.w3.org/2000/svg">
<path d="M1.5 17.2C1.06667 17.2 0.708333 17.0583 0.425 16.775C0.141667 16.4917 0 16.1333 0 15.7V3.3C0 2.86667 0.141667 2.50833 0.425 2.225C0.708333 1.94167 1.06667 1.8 1.5 1.8H9.725L9.025 2.5H1.5C1.3 2.5 1.11667 2.58333 0.95 2.75C0.783333 2.91667 0.7 3.1 0.7 3.3V15.7C0.7 15.9 0.783333 16.0833 0.95 16.25C1.11667 16.4167 1.3 16.5 1.5 16.5H13.9C14.1 16.5 14.2833 16.4167 14.45 16.25C14.6167 16.0833 14.7 15.9 14.7 15.7V8.05L15.4 7.35V15.7C15.4 16.1333 15.2583 16.4917 14.975 16.775C14.6917 17.0583 14.3333 17.2 13.9 17.2H1.5ZM6 11.2V9.075L14.875 0.2C14.9583 0.116667 15.0417 0.0625 15.125 0.0375C15.2083 0.0125 15.3 0 15.4 0C15.4833 0 15.5667 0.0125 15.65 0.0375C15.7333 0.0625 15.8083 0.108333 15.875 0.175L16.9 1.15C16.9833 1.23333 17.0458 1.325 17.0875 1.425C17.1292 1.525 17.15 1.625 17.15 1.725C17.15 1.825 17.1375 1.91667 17.1125 2C17.0875 2.08333 17.0333 2.16667 16.95 2.25L8 11.2H6ZM6.7 10.5H7.7L14.625 3.575L14.125 3.075L13.55 2.525L6.7 9.375V10.5Z" fill="gray"/>
</svg>
