<svg width="18" height="18" viewBox="0 0 18 18" fill="none" xmlns="http://www.w3.org/2000/svg">
<path d="M7.47414 12.8017L13.8879 6.38793L13.4483 5.94828L7.47414 11.9483L4.47414 8.94828L4.06034 9.38793L7.47414 12.8017ZM9.0044 18C7.76009 18 6.59431 17.7639 5.50707 17.2916C4.41983 16.8194 3.46664 16.1741 2.6475 15.3559C1.82819 14.5376 1.18216 13.5856 0.709396 12.4999C0.236465 11.4141 0 10.2489 0 9.0044C0 7.76009 0.236121 6.59 0.708362 5.49414C1.1806 4.39828 1.82586 3.44509 2.64414 2.63457C3.46241 1.82388 4.4144 1.18216 5.50009 0.709396C6.58595 0.236465 7.75112 0 8.9956 0C10.2399 0 11.41 0.236121 12.5059 0.708362C13.6017 1.1806 14.5549 1.82155 15.3654 2.63121C16.1761 3.44086 16.8178 4.39284 17.2906 5.48715C17.7635 6.58164 18 7.75112 18 8.9956C18 10.2399 17.7639 11.4057 17.2916 12.4929C16.8194 13.5802 16.1784 14.5334 15.3688 15.3525C14.5591 16.1718 13.6072 16.8178 12.5128 17.2906C11.4184 17.7635 10.2489 18 9.0044 18ZM9 17.431C11.3448 17.431 13.3362 16.6121 14.9741 14.9741C16.6121 13.3362 17.431 11.3448 17.431 9C17.431 6.65517 16.6121 4.66379 14.9741 3.02586C13.3362 1.38793 11.3448 0.568966 9 0.568966C6.65517 0.568966 4.66379 1.38793 3.02586 3.02586C1.38793 4.66379 0.568966 6.65517 0.568966 9C0.568966 11.3448 1.38793 13.3362 3.02586 14.9741C4.66379 16.6121 6.65517 17.431 9 17.431Z" fill="#000"/>
</svg>
