<svg width="42" height="42" viewBox="0 0 24 24" fill="none" xmlns="http://www.w3.org/2000/svg"><g id="SVGRepo_bgCarrier" stroke-width="0"></g><g id="SVGRepo_tracerCarrier" stroke-linecap="round" stroke-linejoin="round"></g><g id="SVGRepo_iconCarrier"> <g id="Iconly/Curved/2 User"> <g id="2 User"> <path id="Stroke 1" fill-rule="evenodd" clip-rule="evenodd" d="M9.55851 21.4562C5.88651 21.4562 2.74951 20.9012 2.74951 18.6772C2.74951 16.4532 5.86651 14.4492 9.55851 14.4492C13.2305 14.4492 16.3665 16.4342 16.3665 18.6572C16.3665 20.8802 13.2505 21.4562 9.55851 21.4562Z" stroke="var(--icon-stroke-color)" stroke-width="0.5" stroke-linecap="round" stroke-linejoin="round"></path> <path id="Stroke 3" fill-rule="evenodd" clip-rule="evenodd" d="M9.55849 11.2776C11.9685 11.2776 13.9225 9.32356 13.9225 6.91356C13.9225 4.50356 11.9685 2.54956 9.55849 2.54956C7.14849 2.54956 5.19449 4.50356 5.19449 6.91356C5.18549 9.31556 7.12649 11.2696 9.52749 11.2776H9.55849Z" stroke="var(--icon-stroke-color)" stroke-width="0.5" stroke-linecap="round" stroke-linejoin="round"></path> <path id="Stroke 5" d="M16.8013 10.0789C18.2043 9.70388 19.2383 8.42488 19.2383 6.90288C19.2393 5.31488 18.1123 3.98888 16.6143 3.68188" stroke="var(--icon-stroke-color)" stroke-width="0.5" stroke-linecap="round" stroke-linejoin="round"></path> <path id="Stroke 7" d="M17.4608 13.6536C19.4488 13.6536 21.1468 15.0016 21.1468 16.2046C21.1468 16.9136 20.5618 17.6416 19.6718 17.8506" stroke="var(--icon-stroke-color)" stroke-width="0.5" stroke-linecap="round" stroke-linejoin="round"></path> </g> </g> </g></svg>