<svg width="36" height="36" viewBox="0 0 36 36" fill="none" xmlns="http://www.w3.org/2000/svg">
<path d="M26.2083 27.625H20.5417M23.375 30.4583V24.7916M16.9858 30.8975C14.4075 30.8975 11.8433 30.2458 9.88833 28.9425C6.45999 26.6475 6.45999 22.9075 9.88833 20.6266C13.7842 18.02 20.1733 18.02 24.0692 20.6266M17.2267 15.3991C17.085 15.385 16.915 15.385 16.7592 15.3991C15.1331 15.3439 13.5924 14.658 12.4633 13.4866C11.3342 12.3152 10.7054 10.7503 10.71 9.12331C10.7078 8.29786 10.8685 7.48009 11.1829 6.71686C11.4973 5.95364 11.9593 5.25998 12.5423 4.67564C13.1253 4.09129 13.8179 3.62777 14.5805 3.31162C15.343 2.99548 16.1604 2.83294 16.9858 2.83331C20.4567 2.83331 23.2758 5.65248 23.2758 9.12331C23.2758 12.5233 20.5842 15.2858 17.2267 15.3991V15.3991Z" stroke="var(--icon-stroke-color)" stroke-width="1" stroke-linecap="round" stroke-linejoin="round"/>
</svg>
