<svg width="16" height="16" viewBox="0 0 16 16" fill="none" xmlns="http://www.w3.org/2000/svg">
<g clip-path="url(#clip0_54_470)">
<path d="M14.4534 11.3067L12.3668 6.43334C11.6601 4.78001 10.3601 4.71334 9.48678 6.28668L8.22678 8.56001C7.58678 9.71334 6.39345 9.81334 5.56678 8.78001L5.42011 8.59334C4.56011 7.51334 3.34678 7.64668 2.72678 8.88001L1.58011 11.18C0.773447 12.78 1.94011 14.6667 3.72678 14.6667H12.2334C13.9668 14.6667 15.1334 12.9 14.4534 11.3067ZM4.64678 5.33334C5.17721 5.33334 5.68592 5.12263 6.06099 4.74756C6.43607 4.37248 6.64678 3.86378 6.64678 3.33334C6.64678 2.80291 6.43607 2.2942 6.06099 1.91913C5.68592 1.54406 5.17721 1.33334 4.64678 1.33334C4.11635 1.33334 3.60764 1.54406 3.23257 1.91913C2.85749 2.2942 2.64678 2.80291 2.64678 3.33334C2.64678 3.86378 2.85749 4.37248 3.23257 4.74756C3.60764 5.12263 4.11635 5.33334 4.64678 5.33334V5.33334Z" stroke="var(--icon-stroke-color)" stroke-linecap="round" stroke-linejoin="round"/>
</g>
<defs>
<clipPath id="clip0_54_470">
<rect width="16" height="16" fill="white"/>
</clipPath>
</defs>
</svg>
