<svg width="56" height="56" viewBox="0 0 56 56" fill="none" xmlns="http://www.w3.org/2000/svg">
<path d="M48.0433 51.3333C48.0433 42.3033 39.06 35 28 35C16.94 35 7.95667 42.3033 7.95667 51.3333M28 28C31.0942 28 34.0617 26.7708 36.2496 24.5829C38.4375 22.395 39.6667 19.4275 39.6667 16.3333C39.6667 13.2391 38.4375 10.2717 36.2496 8.08375C34.0617 5.89583 31.0942 4.66666 28 4.66666C24.9058 4.66666 21.9383 5.89583 19.7504 8.08375C17.5625 10.2717 16.3333 13.2391 16.3333 16.3333C16.3333 19.4275 17.5625 22.395 19.7504 24.5829C21.9383 26.7708 24.9058 28 28 28V28Z" stroke="white" stroke-width="1.5" stroke-linecap="round" stroke-linejoin="round"/>
</svg>
