<svg width="19" height="19" viewBox="0 0 19 19" fill="none" xmlns="http://www.w3.org/2000/svg">
<path d="M15.35 15.85C15.2083 15.85 15.0896 15.8021 14.9938 15.7063C14.8979 15.6104 14.85 15.4917 14.85 15.35C14.85 15.2083 14.8979 15.0896 14.9938 14.9938C15.0896 14.8979 15.2083 14.85 15.35 14.85C15.4917 14.85 15.6104 14.8979 15.7063 14.9938C15.8021 15.0896 15.85 15.2083 15.85 15.35C15.85 15.4917 15.8021 15.6104 15.7063 15.7063C15.6104 15.8021 15.4917 15.85 15.35 15.85ZM4.35 18.85C4.20833 18.85 4.08958 18.8021 3.99375 18.7063C3.89792 18.6104 3.85 18.4917 3.85 18.35C3.85 18.2083 3.89792 18.0896 3.99375 17.9938C4.08958 17.8979 4.20833 17.85 4.35 17.85C4.49167 17.85 4.61042 17.8979 4.70625 17.9938C4.80208 18.0896 4.85 18.2083 4.85 18.35C4.85 18.4917 4.80208 18.6104 4.70625 18.7063C4.61042 18.8021 4.49167 18.85 4.35 18.85ZM3.35 15.7C3.25083 15.7 3.16767 15.6663 3.1005 15.599C3.0335 15.5318 3 15.4485 3 15.349C3 15.2497 3.0335 15.1667 3.1005 15.1C3.16767 15.0333 3.25083 15 3.35 15H12.35C12.4492 15 12.5322 15.0337 12.5992 15.101C12.6664 15.1682 12.7 15.2515 12.7 15.351C12.7 15.4503 12.6664 15.5333 12.5992 15.6C12.5322 15.6667 12.4492 15.7 12.35 15.7H3.35ZM7.35 18.7C7.25083 18.7 7.16767 18.6663 7.1005 18.599C7.0335 18.5318 7 18.4485 7 18.349C7 18.2497 7.0335 18.1667 7.1005 18.1C7.16767 18.0333 7.25083 18 7.35 18H14.35C14.4492 18 14.5322 18.0337 14.5992 18.101C14.6664 18.1682 14.7 18.2515 14.7 18.351C14.7 18.4503 14.6664 18.5333 14.5992 18.6C14.5322 18.6667 14.4492 18.7 14.35 18.7H7.35ZM4.85 12.7C3.5 12.7 2.35417 12.2292 1.4125 11.2875C0.470833 10.3458 0 9.2 0 7.85C0 6.58333 0.429167 5.49167 1.2875 4.575C2.14583 3.65833 3.225 3.13333 4.525 3C5.00983 2.0655 5.67275 1.33192 6.51375 0.799249C7.35458 0.266416 8.29683 0 9.3405 0C10.7635 0 11.9792 0.475 12.9875 1.425C13.9958 2.375 14.575 3.55833 14.725 4.975C15.975 5.04167 16.95 5.45417 17.65 6.2125C18.35 6.97083 18.7 7.8525 18.7 8.8575C18.7 9.91917 18.3257 10.825 17.577 11.575C16.8285 12.325 15.9195 12.7 14.85 12.7H4.85ZM4.85 12H14.85C15.7167 12 16.4583 11.6917 17.075 11.075C17.6917 10.4583 18 9.71667 18 8.85C18 7.98333 17.6917 7.24167 17.075 6.625C16.4583 6.00833 15.7167 5.7 14.85 5.7H14V5.35C14 4.07133 13.5443 2.97667 12.633 2.066C11.7215 1.15533 10.6259 0.7 9.34625 0.7C8.41542 0.7 7.56767 0.95275 6.803 1.45825C6.03817 1.96392 5.46217 2.6445 5.075 3.5L4.9965 3.7H4.8C3.671 3.7395 2.70542 4.15942 1.90325 4.95975C1.10108 5.76008 0.7 6.7235 0.7 7.85C0.7 8.99617 1.10508 9.97442 1.91525 10.7848C2.72558 11.5949 3.70383 12 4.85 12Z" fill="black" fill-opacity="0.8"/>
</svg>
