<svg width="16" height="16" viewBox="0 0 16 16" fill="none" xmlns="http://www.w3.org/2000/svg">
<path d="M3.7 4.45C3.9 4.45 4.075 4.375 4.225 4.225C4.375 4.075 4.45 3.9 4.45 3.7C4.45 3.5 4.375 3.325 4.225 3.175C4.075 3.025 3.9 2.95 3.7 2.95C3.5 2.95 3.325 3.025 3.175 3.175C3.025 3.325 2.95 3.5 2.95 3.7C2.95 3.9 3.025 4.075 3.175 4.225C3.325 4.375 3.5 4.45 3.7 4.45ZM3.7 8.45C3.9 8.45 4.075 8.375 4.225 8.225C4.375 8.075 4.45 7.9 4.45 7.7C4.45 7.5 4.375 7.325 4.225 7.175C4.075 7.025 3.9 6.95 3.7 6.95C3.5 6.95 3.325 7.025 3.175 7.175C3.025 7.325 2.95 7.5 2.95 7.7C2.95 7.9 3.025 8.075 3.175 8.225C3.325 8.375 3.5 8.45 3.7 8.45ZM3.7 12.45C3.9 12.45 4.075 12.375 4.225 12.225C4.375 12.075 4.45 11.9 4.45 11.7C4.45 11.5 4.375 11.325 4.225 11.175C4.075 11.025 3.9 10.95 3.7 10.95C3.5 10.95 3.325 11.025 3.175 11.175C3.025 11.325 2.95 11.5 2.95 11.7C2.95 11.9 3.025 12.075 3.175 12.225C3.325 12.375 3.5 12.45 3.7 12.45ZM1.5 15.4C1.06667 15.4 0.708333 15.2583 0.425 14.975C0.141667 14.6917 0 14.3333 0 13.9V1.5C0 1.06667 0.141667 0.708333 0.425 0.425C0.708333 0.141667 1.06667 0 1.5 0H11.15L15.4 4.25V13.9C15.4 14.3333 15.2583 14.6917 14.975 14.975C14.6917 15.2583 14.3333 15.4 13.9 15.4H1.5ZM1.5 14.7H13.9C14.1333 14.7 14.325 14.625 14.475 14.475C14.625 14.325 14.7 14.1333 14.7 13.9V4.7H10.7V0.7H1.5C1.26667 0.7 1.075 0.775 0.925 0.925C0.775 1.075 0.7 1.26667 0.7 1.5V13.9C0.7 14.1333 0.775 14.325 0.925 14.475C1.075 14.625 1.26667 14.7 1.5 14.7Z" fill="black" fill-opacity="0.8"/>
</svg>
