<svg width="35" height="35" viewBox="0 0 35 35" fill="none" xmlns="http://www.w3.org/2000/svg">
<path d="M5.8 28.9C7.63333 27.6667 9.46667 26.6917 11.3 25.975C13.1333 25.2583 15.1667 24.9 17.4 24.9C19.6333 24.9 21.6667 25.2583 23.5 25.975C25.3333 26.6917 27.1667 27.6667 29 28.9C30.4333 27.4 31.575 25.6819 32.425 23.7457C33.275 21.8095 33.7 19.6943 33.7 17.4C33.7 12.8667 32.1167 9.01667 28.95 5.85C25.7833 2.68333 21.9333 1.1 17.4 1.1C12.8667 1.1 9.01667 2.68333 5.85 5.85C2.68333 9.01667 1.1 12.8667 1.1 17.4C1.1 19.6943 1.525 21.8095 2.375 23.7457C3.225 25.6819 4.36667 27.4 5.8 28.9ZM17.3867 17.95C15.7956 17.95 14.4583 17.4039 13.375 16.3117C12.2917 15.2195 11.75 13.8778 11.75 12.2867C11.75 10.6956 12.2961 9.35833 13.3883 8.275C14.4805 7.19167 15.8222 6.65 17.4133 6.65C19.0044 6.65 20.3417 7.1961 21.425 8.2883C22.5083 9.38053 23.05 10.7222 23.05 12.3133C23.05 13.9044 22.5039 15.2417 21.4117 16.325C20.3195 17.4083 18.9778 17.95 17.3867 17.95ZM17.4234 34.8C14.9745 34.8 12.6964 34.35 10.5893 33.45C8.48228 32.55 6.64062 31.3083 5.06435 29.725C3.48812 28.1417 2.25 26.3039 1.35 24.2117C0.45 22.1195 0 19.8528 0 17.4117C0 14.9706 0.45 12.7 1.35 10.6C2.25 8.5 3.49167 6.65833 5.075 5.075C6.65833 3.49167 8.4961 2.25 10.5883 1.35C12.6805 0.45 14.9472 0 17.3883 0C19.8294 0 22.1 0.45 24.2 1.35C26.3 2.25 28.1417 3.49167 29.725 5.075C31.3083 6.65833 32.55 8.50053 33.45 10.6016C34.35 12.7027 34.8 14.961 34.8 17.3766C34.8 19.8255 34.35 22.1036 33.45 24.2107C32.55 26.3177 31.3083 28.1594 29.725 29.7357C28.1417 31.3119 26.2995 32.55 24.1984 33.45C22.0973 34.35 19.839 34.8 17.4234 34.8ZM17.4 33.7C19.3 33.7 21.2 33.3583 23.1 32.675C25 31.9917 26.6667 31 28.1 29.7C26.6667 28.5667 25.0417 27.6667 23.225 27C21.4083 26.3333 19.4667 26 17.4 26C15.3333 26 13.3833 26.325 11.55 26.975C9.71667 27.625 8.11667 28.5333 6.75 29.7C8.15 31 9.8 31.9917 11.7 32.675C13.6 33.3583 15.5 33.7 17.4 33.7ZM17.407 16.85C18.7023 16.85 19.7833 16.4143 20.65 15.543C21.5167 14.6717 21.95 13.5884 21.95 12.293C21.95 10.9977 21.5143 9.91667 20.643 9.05C19.7717 8.18333 18.6884 7.75 17.393 7.75C16.0977 7.75 15.0167 8.18567 14.15 9.057C13.2833 9.9283 12.85 11.0116 12.85 12.307C12.85 13.6023 13.2857 14.6833 14.157 15.55C15.0283 16.4167 16.1116 16.85 17.407 16.85Z" fill="white"/>
</svg>
