<svg width="40" height="40" viewBox="0 0 40 40" fill="none" xmlns="http://www.w3.org/2000/svg">
<path d="M39.1279 40L33.0233 33.9535H4.88372V31.2209C4.88372 30.3295 5.15504 29.5155 5.69767 28.7791C6.24031 28.0426 6.95736 27.4612 7.84884 27.0349C10.1744 25.9884 12.4419 25.2132 14.6512 24.7093C16.8605 24.2054 19.0698 23.9729 21.2791 24.0116H22.2093C22.5194 24.0116 22.8488 24.031 23.1977 24.0698L0 0.872093L0.930233 0L40 39.0698L39.1279 40ZM6.16279 32.6744H31.7442L24.7674 25.6395C24.031 25.562 23.314 25.4942 22.6163 25.436C21.9186 25.3779 21.2016 25.3488 20.4651 25.3488C18.4109 25.3488 16.3857 25.5717 14.3895 26.0174C12.3934 26.4632 10.4264 27.1705 8.48837 28.1395C7.75194 28.5271 7.18023 28.9922 6.77326 29.5349C6.36628 30.0775 6.16279 30.6395 6.16279 31.2209V32.6744ZM34.3605 27.6744H34.3895C34.4089 27.6744 34.4186 27.6938 34.4186 27.7326V27.8488L34.2442 27.7326C34.2442 27.6938 34.2539 27.6841 34.2733 27.7035C34.2926 27.7229 34.3217 27.7132 34.3605 27.6744ZM23.7209 16.7442L22.7326 15.7558C23.5078 15.3682 24.1279 14.7965 24.593 14.0407C25.0581 13.2849 25.2907 12.4612 25.2907 11.5698C25.2907 10.2132 24.8256 9.06977 23.8953 8.13953C22.9651 7.2093 21.8217 6.74419 20.4651 6.74419C19.5736 6.74419 18.75 6.97674 17.9942 7.44186C17.2384 7.90698 16.6473 8.52713 16.2209 9.30233L15.2907 8.31395C15.8333 7.38372 16.5601 6.67636 17.4709 6.19186C18.3818 5.70736 19.3798 5.46512 20.4651 5.46512C22.1705 5.46512 23.6143 6.0562 24.7965 7.23837C25.9787 8.42054 26.5698 9.86434 26.5698 11.5698C26.5698 12.655 26.3275 13.6531 25.843 14.564C25.3585 15.4748 24.6512 16.2016 23.7209 16.7442Z" fill="#6D6D6D"/>
</svg>
