<svg width="40" height="40" viewBox="0 0 40 40" fill="none" xmlns="http://www.w3.org/2000/svg">
<path d="M19.9932 19.6552C18.5035 19.6552 17.2318 19.1284 16.1782 18.0747C15.1245 17.0211 14.5977 15.7494 14.5977 14.2597C14.5977 12.7992 15.1245 11.5326 16.1782 10.4598C17.2318 9.38697 18.5035 8.85057 19.9932 8.85057C21.4537 8.85057 22.7203 9.38697 23.7931 10.4598C24.8659 11.5326 25.4023 12.7992 25.4023 14.2597C25.4023 15.7494 24.8659 17.0211 23.7931 18.0747C22.7203 19.1284 21.4537 19.6552 19.9932 19.6552ZM19.9798 18.3908C21.1427 18.3908 22.1264 17.9861 22.931 17.1768C23.7356 16.3674 24.1379 15.3995 24.1379 14.273C24.1379 13.1102 23.7385 12.1264 22.9396 11.3218C22.1407 10.5172 21.1445 10.1149 19.9511 10.1149C18.8343 10.1149 17.8736 10.5144 17.069 11.3133C16.2644 12.1122 15.8621 13.1083 15.8621 14.3018C15.8621 15.4186 16.2667 16.3793 17.0761 17.1839C17.8854 17.9885 18.8534 18.3908 19.9798 18.3908ZM7.70115 31.1494V28.2759C7.70115 27.6395 7.88387 27.0652 8.24931 26.553C8.61479 26.0407 9.08341 25.6189 9.65517 25.2874C11.2261 24.4061 12.8891 23.7452 14.6442 23.3046C16.3993 22.864 18.1809 22.6437 19.989 22.6437C21.7971 22.6437 23.5824 22.864 25.3448 23.3046C27.1073 23.7452 28.7739 24.4061 30.3448 25.2874C30.9166 25.6189 31.3852 26.0407 31.7507 26.553C32.1161 27.0652 32.2989 27.6395 32.2989 28.2759V31.1494H7.70115ZM20 23.908C18.1783 23.908 16.3244 24.1858 14.4383 24.7414C12.5522 25.2969 10.6897 26.1303 8.85057 27.2414V29.9425H31.1494V27.1839C29.3487 26.0728 27.4957 25.249 25.5904 24.7126C23.6852 24.1762 21.8217 23.908 20 23.908ZM20 29.9425H31.1494H8.85057H20ZM3.12253 40C2.2372 40 1.49546 39.7009 0.897299 39.1027C0.2991 38.5045 0 37.7628 0 36.8775V29.3103H1.26437V36.8966C1.26437 37.3563 1.45594 37.7778 1.83908 38.1609C2.22222 38.5441 2.64368 38.7356 3.10345 38.7356H10.6897V40H3.12253ZM0 10.6897V3.12253C0 2.2372 0.2991 1.49544 0.897299 0.897241C1.49546 0.29908 2.2372 0 3.12253 0H10.6897V1.26437H3.10345C2.64368 1.26437 2.22222 1.45594 1.83908 1.83908C1.45594 2.22222 1.26437 2.64368 1.26437 3.10345V10.6897H0ZM29.3103 40V38.7356H36.8966C37.3563 38.7356 37.7778 38.5441 38.1609 38.1609C38.5441 37.7778 38.7356 37.3563 38.7356 36.8966V29.3103H40V36.8775C40 37.7628 39.7009 38.5045 39.1028 39.1027C38.5046 39.7009 37.7628 40 36.8775 40H29.3103ZM38.7356 10.6897V3.10345C38.7356 2.64368 38.5441 2.22222 38.1609 1.83908C37.7778 1.45594 37.3563 1.26437 36.8966 1.26437H29.3103V0H36.8775C37.7628 0 38.5046 0.29908 39.1028 0.897241C39.7009 1.49544 40 2.2372 40 3.12253V10.6897H38.7356Z" fill="#6D6D6D"/>
</svg>
