<svg width="30" height="30" viewBox="0 0 30 30" fill="none" xmlns="http://www.w3.org/2000/svg">
<path d="M5 24.9138C6.58046 23.8506 8.16092 23.0101 9.74138 22.3922C11.3218 21.7744 13.0747 21.4655 15 21.4655C16.9253 21.4655 18.6782 21.7744 20.2586 22.3922C21.8391 23.0101 23.4195 23.8506 25 24.9138C26.2356 23.6207 27.2198 22.1396 27.9526 20.4704C28.6853 18.8013 29.0517 16.9778 29.0517 15C29.0517 11.092 27.6868 7.77299 24.9569 5.0431C22.227 2.31322 18.908 0.948276 15 0.948276C11.092 0.948276 7.77299 2.31322 5.0431 5.0431C2.31322 7.77299 0.948276 11.092 0.948276 15C0.948276 16.9778 1.31466 18.8013 2.04741 20.4704C2.78017 22.1396 3.76437 23.6207 5 24.9138ZM14.9885 15.4741C13.6169 15.4741 12.4641 15.0034 11.5302 14.0618C10.5963 13.1202 10.1293 11.9636 10.1293 10.592C10.1293 9.22032 10.6001 8.06753 11.5416 7.13362C12.4832 6.19971 13.6398 5.73276 15.0115 5.73276C16.3831 5.73276 17.5359 6.20353 18.4698 7.14509C19.4037 8.08667 19.8707 9.24328 19.8707 10.6149C19.8707 11.9866 19.3999 13.1394 18.4584 14.0733C17.5168 15.0072 16.3602 15.4741 14.9885 15.4741ZM15.0202 30C12.909 30 10.9452 29.6121 9.12875 28.8362C7.31231 28.0603 5.72467 26.9899 4.36582 25.625C3.007 24.2601 1.93966 22.6758 1.16379 20.8722C0.387931 19.0685 0 17.1145 0 15.0101C0 12.9057 0.387931 10.9483 1.16379 9.13793C1.93966 7.32759 3.01006 5.73994 4.375 4.375C5.73994 3.01006 7.32422 1.93966 9.12784 1.16379C10.9315 0.387931 12.8855 0 14.9899 0C17.0943 0 19.0517 0.387931 20.8621 1.16379C22.6724 1.93966 24.2601 3.01006 25.625 4.375C26.9899 5.73994 28.0603 7.32805 28.8362 9.13931C29.6121 10.9506 30 12.8974 30 14.9798C30 17.091 29.6121 19.0548 28.8362 20.8713C28.0603 22.6877 26.9899 24.2753 25.625 25.6342C24.2601 26.993 22.672 28.0603 20.8607 28.8362C19.0494 29.6121 17.1026 30 15.0202 30ZM15 29.0517C16.6379 29.0517 18.2759 28.7572 19.9138 28.1681C21.5517 27.579 22.9885 26.7241 24.2241 25.6034C22.9885 24.6264 21.5876 23.8506 20.0216 23.2759C18.4555 22.7011 16.7816 22.4138 15 22.4138C13.2184 22.4138 11.5374 22.694 9.9569 23.2543C8.37644 23.8147 6.99713 24.5977 5.81897 25.6034C7.02586 26.7241 8.44828 27.579 10.0862 28.1681C11.7241 28.7572 13.3621 29.0517 15 29.0517ZM15.006 14.5259C16.1227 14.5259 17.0546 14.1503 17.8017 13.3991C18.5489 12.648 18.9224 11.7141 18.9224 10.5974C18.9224 9.48075 18.5468 8.54885 17.7957 7.80172C17.0446 7.0546 16.1107 6.68103 14.994 6.68103C13.8773 6.68103 12.9454 7.05661 12.1983 7.80776C11.4511 8.55888 11.0776 9.49279 11.0776 10.6095C11.0776 11.7262 11.4532 12.658 12.2043 13.4052C12.9554 14.1523 13.8893 14.5259 15.006 14.5259Z" fill="black"/>
</svg>
