<svg width="30" height="30" viewBox="0 0 30 30" fill="none" xmlns="http://www.w3.org/2000/svg">
<path d="M29.3459 30L24.7674 25.4651H3.66279V23.4157C3.66279 22.7471 3.86628 22.1366 4.27326 21.5843C4.68023 21.032 5.21802 20.5959 5.88663 20.2762C7.63081 19.4913 9.3314 18.9099 10.9884 18.532C12.6453 18.1541 14.3023 17.9797 15.9593 18.0087H16.657C16.8895 18.0087 17.1366 18.0233 17.3983 18.0523L0 0.65407L0.697674 0L30 29.3023L29.3459 30ZM4.62209 24.5058H23.8081L18.5756 19.2297C18.0233 19.1715 17.4855 19.1206 16.9622 19.077C16.439 19.0334 15.9012 19.0116 15.3488 19.0116C13.8081 19.0116 12.2892 19.1788 10.7922 19.5131C9.29506 19.8474 7.81977 20.3779 6.36628 21.1047C5.81395 21.3953 5.38517 21.7442 5.07994 22.1512C4.77471 22.5581 4.62209 22.9797 4.62209 23.4157V24.5058ZM25.7703 20.7558H25.7922C25.8067 20.7558 25.814 20.7703 25.814 20.7994V20.8866L25.6831 20.7994C25.6831 20.7703 25.6904 20.7631 25.7049 20.7776C25.7195 20.7922 25.7413 20.7849 25.7703 20.7558ZM17.7907 12.5581L17.0494 11.8169C17.6308 11.5262 18.0959 11.0974 18.4448 10.5305C18.7936 9.96366 18.968 9.34593 18.968 8.67733C18.968 7.65988 18.6192 6.80233 17.9215 6.10465C17.2238 5.40698 16.3663 5.05814 15.3488 5.05814C14.6802 5.05814 14.0625 5.23256 13.4956 5.5814C12.9288 5.93023 12.4855 6.39535 12.1657 6.97674L11.468 6.23547C11.875 5.53779 12.4201 5.00727 13.1032 4.6439C13.7863 4.28052 14.5349 4.09884 15.3488 4.09884C16.6279 4.09884 17.7108 4.54215 18.5974 5.42878C19.484 6.31541 19.9273 7.39826 19.9273 8.67733C19.9273 9.49128 19.7456 10.2398 19.3823 10.923C19.0189 11.6061 18.4884 12.1512 17.7907 12.5581Z" fill="black"/>
</svg>
